<svg version="1.1" xmlns="http://www.w3.org/2000/svg" viewBox="0 0 719.8409016542137 570.7834229956387" width="719.8409016542137" height="570.7834229956387">
  <!-- svg-source:excalidraw -->
  
  <defs>
    <style>
      @font-face {
        font-family: "Virgil";
        src: url("https://excalidraw.com/Virgil.woff2");
      }
      @font-face {
        font-family: "Cascadia";
        src: url("https://excalidraw.com/Cascadia.woff2");
      }
    </style>
  </defs>
  <rect x="0" y="0" width="719.8409016542137" height="570.7834229956387" fill="#ffffff"></rect><g stroke-linecap="round"><g transform="translate(290.3670746481055 11.542830992490053) rotate(0 -0.5168360445655935 34.22762044366377)" fill-rule="evenodd"><path d="M1.47 0.17 L-31.66 18.59 L-30.76 50.89 L1.52 69.93 L28.14 51.22 L30.08 17.69 L1.25 0.97" stroke="none" stroke-width="0" fill="#40c057" fill-rule="evenodd"></path><path d="M-0.45 -1.54 C-12.04 5.1, -19.94 10.4, -30.8 15.71 M0.33 -0.59 C-7.04 4.17, -14.62 8.43, -30.48 16.69 M-31.43 16.57 C-31.49 23.06, -31.46 30.71, -31.51 49.3 M-31.1 18.28 C-31.26 27.21, -31.06 36.87, -30.81 50.63 M-30.32 49.98 C-20.7 56.34, -8.53 61.66, 0.9 69.97 M-30.27 51.01 C-22.98 55.78, -14.97 60.26, -0.13 68.83 M1.19 70 C9.95 63.84, 17.34 57.08, 30.08 49.04 M-0.32 68.61 C11.87 61.66, 23.87 53.48, 29.66 50.22 M28.47 49.71 C28.76 39.56, 28.03 30.64, 28.73 14.92 M29.26 49.86 C29.97 38.25, 29.52 25.49, 30.48 15.52 M28.93 16.31 C23.22 11.2, 16.46 9.34, 1.89 1.84 M29.27 16.85 C20.31 10.93, 13.02 7.71, -0.7 -0.82 M0 0 C0 0, 0 0, 0 0 M0 0 C0 0, 0 0, 0 0" stroke="#000000" stroke-width="1" fill="none"></path></g></g><g stroke-linecap="round"><g transform="translate(279.78663285803486 38.404812634106975) rotate(0 9.826914726082464 6.161182945628838)" fill-rule="evenodd"><path d="M1.6 -1.9 L0.78 19.77 L-0.82 21.85 L-5.6 21.56 L-5.19 12.87 L-4.55 -8.26 L-2.88 -9.75 L2.29 -9.29 L19.06 14.28 L18.32 -7.95 L23.37 -9.14 L24.62 -7.86 L26.69 5.93 L25.46 19.61 L20.97 22.31 L17.08 20.61 L1.04 1.28" stroke="none" stroke-width="0" fill="#ffff" fill-rule="evenodd"></path><path d="M-0.27 -0.93 C-0.39 0.55, -1.05 6.1, -1.04 9.66 C-1.02 13.23, 0.58 18.81, -0.17 20.48 C-0.92 22.15, -4.42 22.45, -5.52 19.68 C-6.63 16.92, -6.79 8.36, -6.8 3.91 C-6.82 -0.55, -6.87 -5.25, -5.64 -7.06 C-4.4 -8.86, -1.95 -8.71, 0.61 -6.91 C3.17 -5.11, 6.83 0.42, 9.75 3.73 C12.67 7.03, 16.69 14.9, 18.14 12.92 C19.58 10.94, 17.42 -4.7, 18.4 -8.16 C19.39 -11.62, 23.03 -10.01, 24.05 -7.87 C25.07 -5.72, 24.66 0.16, 24.52 4.72 C24.38 9.29, 24.65 16.8, 23.23 19.52 C21.81 22.23, 18.77 22.68, 16.01 21 C13.25 19.32, 9.38 12.9, 6.66 9.45 C3.95 6, 0.92 2.01, -0.28 0.29 M1.79 1.2 C2.04 2.77, 1.5 7.57, 1.05 10.93 C0.6 14.3, 0.17 19.84, -0.9 21.39 C-1.98 22.93, -4.74 23.17, -5.41 20.23 C-6.07 17.29, -5.02 8.46, -4.91 3.77 C-4.81 -0.92, -5.72 -5.97, -4.76 -7.89 C-3.79 -9.81, -1.36 -9.73, 0.88 -7.76 C3.13 -5.79, 5.54 0.73, 8.73 3.94 C11.92 7.14, 18.38 13.07, 20.03 11.48 C21.69 9.9, 17.96 -2.5, 18.67 -5.58 C19.38 -8.66, 23.01 -8.58, 24.3 -6.98 C25.6 -5.38, 26.64 -0.21, 26.44 4.01 C26.24 8.23, 25.03 15.56, 23.12 18.35 C21.21 21.15, 17.72 21.83, 14.98 20.78 C12.23 19.74, 9.03 15.26, 6.64 12.08 C4.25 8.9, 1.45 3.8, 0.61 1.7" stroke="#000000" stroke-width="1" fill="none"></path></g></g><g transform="translate(60 96.90221941318293) rotate(0 41.5 12)"><text x="0" y="19" font-family="Cascadia, Segoe UI Emoji" font-size="20px" fill="#1864ab" text-anchor="start" style="white-space: pre;" direction="ltr">gateway</text></g><g transform="translate(175 95.90221941318293) rotate(0 24 12)"><text x="0" y="19" font-family="Cascadia, Segoe UI Emoji" font-size="20px" fill="#5c940d" text-anchor="start" style="white-space: pre;" direction="ltr">auth</text></g><g transform="translate(262 94.90221941318293) rotate(0 30 12)"><text x="0" y="19" font-family="Cascadia, Segoe UI Emoji" font-size="20px" fill="#c92a2a" text-anchor="start" style="white-space: pre;" direction="ltr">admin</text></g><g transform="translate(335 95.90221941318293) rotate(0 41.5 12)"><text x="0" y="19" font-family="Cascadia, Segoe UI Emoji" font-size="20px" fill="#495057" text-anchor="start" style="white-space: pre;" direction="ltr">swagger</text></g><g transform="translate(445.5 94.58191362352932) rotate(0 11.5 24)"><text x="0" y="19" font-family="Cascadia, Segoe UI Emoji" font-size="20px" fill="#2b8a3e" text-anchor="start" style="white-space: pre;" direction="ltr">mq</text><text x="0" y="43" font-family="Cascadia, Segoe UI Emoji" font-size="20px" fill="#2b8a3e" text-anchor="start" style="white-space: pre;" direction="ltr"></text></g><g stroke-linecap="round"><g transform="translate(542.3670746481055 16.542830992490053) rotate(0 -0.3615242607899063 34.76185431271719)" fill-rule="evenodd"><path d="M-1.39 0.5 L-29.53 17.6 L-31.87 52.17 L-0.27 70.68 L29.93 50.9 L31.11 16.05 L0.96 1.23" stroke="none" stroke-width="0" fill="#40c057" fill-rule="evenodd"></path><path d="M-0.02 1.51 C-6.49 5.03, -13.23 8.08, -29.52 18.15 M0.58 -0.65 C-9.17 5.62, -19.55 11.57, -31.28 17.84 M-30.41 16.86 C-29 27.89, -31.61 41.92, -29.78 51.28 M-29.7 17.48 C-30.47 27.32, -30.75 38.3, -29.71 50.27 M-29.16 52.5 C-17.29 56.75, -7.28 63.05, -1.3 68.48 M-30.49 50.43 C-20.47 56.86, -11.64 60.61, -0.13 68.03 M0.32 70.17 C8.98 60.65, 22.59 55.16, 29.64 51.1 M0.61 68.99 C6.58 63.48, 14.58 59.67, 28.75 49.47 M28.53 50.95 C30.3 43.28, 31.15 35.18, 28.35 15.37 M29.23 48.89 C29.53 40.28, 30.82 30.96, 29.81 15.79 M30.56 17.77 C22.16 13.96, 17.36 10.11, 0.88 -0.61 M30.12 17.23 C23.18 12.23, 14.89 7.66, -0.15 -0.17 M0 0 C0 0, 0 0, 0 0 M0 0 C0 0, 0 0, 0 0" stroke="#000000" stroke-width="1" fill="none"></path></g></g><g stroke-linecap="round"><g transform="translate(531.7866328580346 43.404812634106975) rotate(0 9.059094444660559 7.247632240691672)" fill-rule="evenodd"><path d="M0.01 -0.07 L-1.39 20.62 L-2.75 24.05 L-6.33 22.5 L-4.66 12.38 L-3.4 -5.74 L-0.95 -10.26 L0.62 -9.67 L16.86 12.79 L19.34 -7.02 L22.45 -9.57 L23.46 -6.11 L26.76 6.19 L22.22 19.62 L19.37 23.16 L16.22 20.87 L0.17 1.46" stroke="none" stroke-width="0" fill="#ffff" fill-rule="evenodd"></path><path d="M-0.01 0.91 C-0.01 2.9, 0.56 7.43, 0.68 10.8 C0.8 14.18, 1.61 19.42, 0.7 21.15 C-0.2 22.87, -3.62 24, -4.76 21.15 C-5.9 18.31, -6.26 8.74, -6.14 4.09 C-6.02 -0.56, -5.15 -4.82, -4.04 -6.75 C-2.93 -8.68, -1.78 -8.91, 0.53 -7.48 C2.84 -6.05, 6.74 -1.42, 9.84 1.82 C12.93 5.06, 17.44 13.35, 19.1 11.96 C20.75 10.57, 18.8 -3.41, 19.78 -6.51 C20.76 -9.61, 24.07 -8.55, 24.96 -6.65 C25.85 -4.75, 25.19 0.51, 25.13 4.89 C25.06 9.28, 26.13 16.78, 24.57 19.67 C23.01 22.56, 18.58 23.74, 15.77 22.23 C12.96 20.73, 10.31 14.37, 7.7 10.65 C5.1 6.92, 1.39 1.5, 0.15 -0.14 M-1.47 0.34 C-1.64 2.08, -0.32 5.33, 0 9.01 C0.32 12.69, 1.13 20.16, 0.43 22.41 C-0.28 24.65, -2.9 25.53, -4.23 22.47 C-5.56 19.41, -7.27 9.03, -7.56 4.05 C-7.85 -0.93, -7.37 -5.31, -5.98 -7.43 C-4.6 -9.54, -1.71 -10.04, 0.77 -8.63 C3.24 -7.23, 6.02 -2.69, 8.87 1.03 C11.71 4.75, 15.85 14.97, 17.84 13.68 C19.82 12.38, 19.46 -2.98, 20.77 -6.73 C22.08 -10.47, 25.21 -10.62, 25.7 -8.78 C26.19 -6.95, 23.8 -0.28, 23.71 4.28 C23.62 8.84, 26.08 15.52, 25.17 18.58 C24.27 21.65, 21.1 24.05, 18.27 22.66 C15.45 21.27, 11.06 13.85, 8.23 10.24 C5.39 6.64, 2.77 3.02, 1.27 1.04" stroke="#000000" stroke-width="1" fill="none"></path></g></g><g transform="translate(497 94.90221941318293) rotate(0 53 12)"><text x="0" y="19" font-family="Cascadia, Segoe UI Emoji" font-size="20px" fill="#5f3dc4" text-anchor="start" style="white-space: pre;" direction="ltr">scheduler</text></g><g stroke-linecap="round"><g transform="translate(171.436416838752 209.57668279444988) rotate(0 -3.4655749253333568 31.374473510311475)" fill-rule="evenodd"><path d="M-42.82 11.8 C-42.82 11.8, -42.82 11.8, -42.82 11.8 M-42.82 11.8 C-42.82 11.8, -42.82 11.8, -42.82 11.8 M-41.87 18.1 C-40.63 15.54, -38.8 12.83, -34.88 10.61 M-42.22 17.91 C-40.29 14.83, -38.32 13.26, -35.4 9.81 M-43.23 23.16 C-40.34 21.25, -36.35 14.6, -28.41 7.75 M-42.59 23.46 C-38.94 18.18, -32.6 12.75, -29.63 7.25 M-41.93 28.62 C-35.88 21.64, -28.29 12.7, -20.19 4.18 M-43.47 29.78 C-35.14 20.93, -28.17 13.12, -22.72 6.58 M-44.78 35.25 C-35.05 26.29, -27.58 20, -16.9 2.83 M-42.3 37.43 C-33.25 26.82, -25.47 16.73, -15.27 3.76 M-42.07 43.32 C-34.09 34.52, -24.39 21.11, -6.67 1.72 M-42.58 43.05 C-29.18 27.3, -14.57 10.88, -7.36 1.74 M-43.52 48.11 C-27.28 28.82, -11.58 14.31, 0.06 -1.53 M-42.34 47.99 C-32.49 37.02, -21.66 24.22, -0.22 -0.54 M-39.59 50 C-21.38 32.47, -9.47 14.27, 1.37 2 M-39.66 49.48 C-23.19 31.85, -7.33 13.1, 2.46 2.64 M-36.47 49.95 C-23.27 38.19, -12.53 26.8, 8.48 4.31 M-35.8 51.38 C-19.61 32.73, -3.88 16.23, 6.98 2.78 M-28.83 53.77 C-19.33 38.65, -5.06 20.86, 11.41 6.7 M-30.2 53.57 C-18.83 40.51, -9.2 27.53, 11.07 4.58 M-26.93 54.53 C-15.52 44.1, -5.8 31.06, 13 6.59 M-27.75 55.6 C-12.03 35.8, 3.82 18.9, 15.71 5.93 M-21.24 54.44 C-11.3 46.7, -3.58 33.97, 17.72 7.43 M-23.55 55.73 C-9.98 41.17, 3.01 27.26, 17.85 9.02 M-17.53 58.72 C-8.64 46.51, 3.24 31.88, 23.15 8.54 M-18.28 58 C-4.31 41.66, 9.52 24.57, 23.54 9.35 M-13.54 57.48 C-0.94 44.03, 15.22 27.11, 24.74 11.02 M-15 59.27 C-1.6 45.45, 10.79 30.83, 26.68 10.84 M-10.06 59.6 C5.66 42.49, 20.81 23.05, 31.28 11.57 M-10.43 60.33 C-1.52 48.58, 9.1 37.11, 30.13 12.86 M-7.62 62.57 C4.16 48.5, 13.21 38.9, 34.38 11.71 M-5.78 60.9 C1.78 51.5, 11.02 41.57, 35.16 12.56 M-2.18 63.17 C12.01 45.49, 27.4 27.35, 40.57 15.29 M-2.75 63.51 C6.87 50.26, 19.29 38.99, 39.24 15.7 M4.72 59.77 C15.86 46.68, 28.25 34.99, 38.82 23.49 M4.27 60.95 C15.79 49.36, 25.08 36.6, 39.44 22.69 M11.13 56.32 C16.61 54.06, 23.64 45.32, 36.46 27.29 M13.11 57.53 C19.56 49.81, 26.22 43.9, 38.17 28.34 M19.85 56.37 C26.24 51.83, 28.68 46.18, 38.89 35.47 M18.79 56.2 C24.96 51.28, 29.27 44.69, 38.63 33.03 M29.02 51.49 C30.99 47.89, 37.11 44.29, 37.17 40.85 M28.11 53.8 C30.57 48.81, 33.1 45.46, 38.13 40.23" stroke="#be4bdb" stroke-width="0.5" fill="none"></path><path d="M1.22 -0.63 C-8.04 1.2, -18.28 4.18, -41.64 10.83 M0.13 0.14 C-16.02 3.94, -31.06 8.96, -42.74 10.72 M-44.28 13.52 C-44.5 19.44, -44.32 29.76, -42.37 49.29 M-43.6 11.55 C-43.54 19.3, -42.45 26.73, -43.14 48.98 M-45.08 47.41 C-31.67 52.67, -20.4 57.49, -3.75 62.53 M-42.48 47.01 C-29.38 53.09, -13.22 59.8, -5.67 61.7 M-7.15 63.02 C6.91 58.62, 19.23 55.88, 34.95 46.55 M-6.17 63.58 C5.41 58.21, 14.68 55.53, 35.13 48.33 M34.96 47.11 C34.31 36.4, 34.45 23.3, 38.15 10.99 M35.67 48.06 C36.49 40.03, 35.63 30.2, 37.29 13.62 M37.36 13.11 C24.01 9.72, 10.69 4.14, 0.07 -0.83 M36.49 12.08 C23.76 7.61, 12.59 3.57, -0.62 0.82 M0 0 C0 0, 0 0, 0 0 M0 0 C0 0, 0 0, 0 0" stroke="#881fa3" stroke-width="1" fill="none"></path></g></g><g transform="translate(139 286.90221941318293) rotate(0 24 12)"><text x="0" y="19" font-family="Cascadia, Segoe UI Emoji" font-size="20px" fill="#a61e4d" text-anchor="start" style="white-space: pre;" direction="ltr">core</text></g><g stroke-linecap="round"><g transform="translate(392.291507577899 325.58928394630334) rotate(0 -3.3698125343978518 31.45953047927611)" fill-rule="evenodd"><path d="M-42.82 11.8 C-42.82 11.8, -42.82 11.8, -42.82 11.8 M-42.82 11.8 C-42.82 11.8, -42.82 11.8, -42.82 11.8 M-43.4 17.04 C-40.37 14.93, -37.57 12.56, -36.62 10.7 M-42.55 17.57 C-41.27 15.26, -39.76 14.11, -35.68 10.24 M-42.61 25.58 C-38.45 16.11, -31.62 9.43, -27.76 8.87 M-42.87 23.14 C-36.42 16.76, -32.42 12.34, -29.78 7.51 M-44.57 31.08 C-37.49 24.63, -30.16 17.83, -20 6.51 M-43.44 30.36 C-38.36 24.55, -32.27 19.65, -21.55 5.2 M-44.57 38.33 C-35.27 29.04, -30.98 20.82, -15.43 2.43 M-43.9 37.2 C-35.97 27.94, -29.17 19.28, -14.33 4.12 M-44.58 41.38 C-33.29 28.57, -20.26 17.72, -8.61 3.2 M-43.22 41.76 C-33.02 30.76, -23.32 20.59, -8.32 3.26 M-42.74 50.08 C-33.25 37.26, -19.63 21.39, -1.15 -0.26 M-42.52 48.38 C-33.82 37.78, -24.23 27.4, -0.46 1.22 M-38.72 48.11 C-28.16 37.91, -21.1 29.54, 1.09 3.03 M-38.6 48.98 C-25.11 36.03, -13.05 20.63, 2.22 2.98 M-36.6 52.49 C-20.54 32.49, -5.42 14.73, 8.66 3.88 M-35.07 51.69 C-21.11 34.35, -5.19 16.74, 7.02 2.98 M-29.75 53.82 C-15.82 34.52, -2.48 16.95, 10.15 7.14 M-31.36 52.3 C-21.8 40.64, -11.86 30.22, 11.1 4.45 M-27.87 54.73 C-12.43 36.32, 5.25 17.29, 14.2 6.54 M-27.92 53.9 C-16.47 43.66, -7.97 31.14, 15.22 5.43 M-21.58 55.74 C-10.86 41.71, 4.51 25.35, 18.38 6.58 M-23.11 55.91 C-9.37 40.49, 2.36 27.31, 18.45 7.9 M-17.61 57.13 C-10.07 46.34, -0.75 34.87, 24.57 8.38 M-18.45 57.16 C-9.83 46.73, 0.82 34.1, 23.4 8.78 M-15.36 56.8 C-0.78 41.5, 17.26 21.44, 27.8 11.6 M-15.46 58.91 C-2.34 43.84, 9.63 29.2, 26.85 11.01 M-10.06 60.2 C5.14 40.48, 22.78 22.16, 31.67 12.25 M-10.96 59.99 C-1.59 50.75, 5.61 41.31, 30.97 12.62 M-5.41 62.11 C2.03 49.43, 9.78 40.13, 33.87 11.89 M-5.89 61.78 C7.62 44.39, 22.17 27.13, 34.63 13.07 M-5.31 65.37 C12.89 44.36, 27.78 27.11, 38.25 15.19 M-3.29 64.09 C4.54 54.08, 14.72 44.82, 39.37 15.99 M4.02 59.16 C15.68 49.71, 27.24 35.17, 38.34 20.87 M5.47 60.63 C16.57 48.39, 26.86 36.06, 38.65 21.35 M11.21 58.98 C18.63 49.69, 29.6 39.13, 37.31 26.23 M11.62 58.24 C22.25 47.85, 30.54 37.51, 37.66 27.12 M20.88 56.68 C25.23 51.2, 28.71 47.88, 39.6 35.11 M19.97 56.03 C24.98 50.33, 29.54 44.92, 38.75 34.47 M28.35 52.7 C32.17 47.92, 34.32 43.51, 38.41 40.22 M27.56 52.8 C31.9 47.83, 36.7 42.9, 38.66 39.41" stroke="#be4bdb" stroke-width="0.5" fill="none"></path><path d="M-1.93 0.24 C-15.34 6.21, -31.59 7.94, -40.74 11.4 M0.79 -0.42 C-10.74 1.95, -20.31 6.34, -43.31 12.37 M-43.52 10.82 C-42.82 24.09, -41.8 38.1, -43.21 47.76 M-43.39 12.4 C-43.16 23.06, -43.59 34.58, -42.6 48.04 M-42.93 47.21 C-29.65 53.48, -15.98 59.62, -4.47 63.72 M-42.53 48.01 C-28.1 53.71, -13.78 59.75, -5.84 62.35 M-7.07 62.44 C10.86 55.36, 25.78 49.96, 36.54 49.07 M-5.13 62.26 C9.88 57.5, 23.68 52.67, 34.98 48.17 M35.84 47.09 C34.65 37.26, 38.08 26.36, 35.79 12.02 M34.69 48.37 C35.06 36.55, 36.7 26.06, 36.78 13.28 M35.48 11.14 C26.62 8.24, 20.63 9.23, -1.66 -0.8 M36.25 11.99 C28.25 9.33, 19.38 7.04, -0.59 -0.4 M0 0 C0 0, 0 0, 0 0 M0 0 C0 0, 0 0, 0 0" stroke="#881fa3" stroke-width="1" fill="none"></path></g></g><g transform="translate(439.85509073914704 344.9148205650365) rotate(0 35.5 12)"><text x="0" y="19" font-family="Cascadia, Segoe UI Emoji" font-size="20px" fill="#e67700" text-anchor="start" style="white-space: pre;" direction="ltr">common</text></g><g stroke-linecap="round"><g transform="translate(389.2915075778992 216.58928394630334) rotate(0 -3.671286906322848 30.593911059202185)" fill-rule="evenodd"><path d="M-42.82 11.8 C-42.82 11.8, -42.82 11.8, -42.82 11.8 M-42.82 11.8 C-42.82 11.8, -42.82 11.8, -42.82 11.8 M-41.52 17.14 C-39.59 15.18, -38.44 13.36, -35.89 9.55 M-42.67 17.62 C-40.81 15.3, -38.07 12.66, -36.14 9.43 M-43.8 23.76 C-36.29 18.51, -33.34 13.52, -30.42 6.05 M-42.14 24.37 C-39.12 20.68, -36.52 18.04, -28.51 8.68 M-42.59 31.05 C-36.69 24.26, -31.58 18.06, -22.09 7.56 M-42.39 30.08 C-35.8 22.19, -30.1 14.5, -22.04 6.14 M-42.83 36.24 C-31.84 23.66, -19.76 11.16, -14.75 2.48 M-43.05 36.92 C-33.85 25.21, -23.03 13.49, -15.36 4.21 M-43.93 44.06 C-34.9 32.73, -26.9 24.17, -7.63 2.62 M-42.99 41.9 C-33.3 29.54, -22.57 17.51, -7.39 2.96 M-41.63 47.53 C-29.73 30.82, -16.79 16.42, 0.57 0.96 M-44.05 47.98 C-31.67 35.04, -20.56 22.06, -0.51 -0.42 M-39.61 48.32 C-21.62 30.51, -6.86 16.07, 4.27 1.54 M-39.52 50.19 C-29.05 38.57, -18.4 26.88, 3.22 2.11 M-34.63 50.46 C-26.04 39.98, -15.72 33.82, 5.33 1.56 M-36.06 51.25 C-21.25 36.21, -7.49 20.28, 7.59 3.28 M-31.67 50.86 C-18.16 37.77, -4.76 24.64, 12.55 3.77 M-31.66 51.78 C-19.25 39.32, -7.79 25.39, 10.86 4.81 M-25.17 56.02 C-15.95 43.39, -2.94 28.71, 13.32 5.6 M-27.69 54.91 C-11.48 36.06, 6.24 16.29, 14.69 6.28 M-21.93 54.08 C-14.9 45.81, -1.74 35.14, 20.32 7.29 M-22.62 56.1 C-6.54 37.98, 9.44 20.13, 17.95 9.13 M-18.51 58.98 C-8.67 45.98, 2.2 30.44, 24.6 7.99 M-18.24 57.17 C-7.97 45.16, 4.14 30.59, 23.04 8.49 M-16.06 58.62 C-6.47 46.5, 2.98 35.88, 26.23 9.92 M-15.29 58.15 C-2.71 43.43, 11.43 29.18, 25.7 11.24 M-9.74 58.92 C4.28 44.11, 18.57 28.56, 31.43 10.45 M-11.66 61.32 C-0.68 48.21, 11.8 36.16, 31.3 11.85 M-7.56 59.97 C6.83 44.58, 24.26 24.55, 35.81 13.54 M-6.11 61.04 C4.18 48.72, 16.17 36.15, 35.37 13.65 M-4.42 64.95 C7 50.31, 19.7 35.86, 38.25 13.54 M-3.09 64.52 C11.97 46.96, 27.37 27.84, 38.55 14.45 M5.55 60.65 C11.05 52.1, 19.69 41.07, 38.17 20.39 M4.13 60.17 C12.08 53.79, 18.52 44.17, 39.08 21.53 M11.92 59.73 C19.02 49.71, 29.06 37.42, 37.18 26.41 M11.54 57.69 C20.29 49.11, 28.48 38.41, 37.71 28.25 M18.8 57 C27.34 49.94, 35.21 39.01, 40.51 32.47 M20.44 56.09 C26.34 46.85, 33.33 38.97, 38.23 34.07 M25.84 51.99 C33.07 49.43, 36.79 43.75, 38.25 40.58 M27.35 52.12 C32 49.18, 35.7 43.3, 37.97 40.82" stroke="#be4bdb" stroke-width="0.5" fill="none"></path><path d="M-1.24 -0.96 C-11.63 2.44, -21.86 7.23, -41.62 10.04 M-0.4 0.04 C-17.62 4.79, -33.57 9.2, -43.01 11.7 M-44.36 10.11 C-40.95 20.68, -43.72 26.79, -42.56 46.17 M-42.07 11.59 C-43.55 22.94, -42.3 33.06, -43.25 47.18 M-43.91 48.3 C-29.65 51.35, -20.06 58.98, -5.49 62 M-42.42 47.75 C-34.61 51.45, -25.98 54.8, -4.38 62.15 M-3.99 61.68 C3.2 60.13, 14.13 54.51, 36.44 46.72 M-5.52 61.65 C9.29 57.57, 25.88 50.94, 36.08 48.03 M34.02 48.15 C35.29 35.92, 34.15 25.08, 36.86 12.47 M35.98 47.62 C35.56 33.54, 36.39 20.08, 36.73 12.83 M36.55 11.6 C30.25 10.9, 19.77 9.32, 0.06 0.61 M37.02 13.05 C28.7 9.46, 20.54 7.18, -0.7 -0.77 M0 0 C0 0, 0 0, 0 0 M0 0 C0 0, 0 0, 0 0" stroke="#881fa3" stroke-width="1" fill="none"></path></g></g><g transform="translate(437.8550907391473 241.9148205650365) rotate(0 59 12)"><text x="0" y="19" font-family="Cascadia, Segoe UI Emoji" font-size="20px" fill="#d9480f" text-anchor="start" style="white-space: pre;" direction="ltr">datasource</text></g><g stroke-linecap="round" transform="translate(66.93071645684051 473.56946691774635) rotate(0 17.189917524744942 26.084744649673326)"><path d="M1.15 0.09 L34.63 -1.7 L35.59 52.34 L-0.4 52.48" stroke="none" stroke-width="0" fill="#fff"></path><path d="M1.38 0.71 C12.29 -0.7, 23.06 -1.93, 34.15 1.83 M-0.41 0.31 C9.97 -0.7, 21.17 -0.25, 35.03 0.19 M33.68 0.26 C35.83 13.17, 33.87 28.16, 32.77 52.95 M33.45 0.52 C34.01 18.3, 33.74 37.27, 35.13 52.27 M32.44 50.18 C25.25 50.15, 16.21 52.97, 1.68 51.97 M35.06 51.52 C21.12 52.36, 9.3 52.71, 0.59 52.02 M1.47 52.31 C1.3 32.66, 1.34 13.47, 1.66 -1.33 M0.05 53.15 C0.9 35.23, 0.68 19.78, 0.14 -0.15" stroke="#5f3dc4" stroke-width="2" fill="none"></path></g><g stroke-linecap="round" transform="translate(63.25945565509198 470.15471934761865) rotate(0 17.189917524744942 26.084744649673326)"><path d="M0.09 0.25 L32.68 1.21 L34.55 51.77 L0.31 52.74" stroke="none" stroke-width="0" fill="#fff"></path><path d="M0.71 0.49 C11.97 -0.78, 23.27 -0.47, 36.21 -0.11 M0.31 -0.17 C10.33 1.05, 21.88 0.79, 34.57 -0.37 M34.64 1 C33.81 19.18, 35.06 38.67, 35.16 53.32 M34.9 -0.28 C33.73 14.22, 34.05 30.29, 34.48 51.97 M32.39 52.67 C20.95 52.92, 12.09 53.51, -0.2 53.52 M33.73 51.54 C22.63 52.58, 11.18 52.99, -0.15 52.85 M0.14 53.26 C-0.29 39.8, -0.28 26.85, -1.33 0.17 M0.98 52.58 C-0.79 41.59, -0.15 30.78, -0.15 0.57" stroke="#5f3dc4" stroke-width="2" fill="none"></path></g><g stroke-linecap="round" transform="translate(58.68944849366949 466.13981224827137) rotate(0 17.189917524744942 26.084744649673326)"><path d="M0.25 -1.7 L35.59 0.17 L33.98 52.48 L0.57 50.6" stroke="none" stroke-width="0" fill="#fff"></path><path d="M0.49 -0.55 C11.25 -1.91, 23.37 1.71, 34.27 0.45 M-0.17 -0.76 C10.63 -0.42, 20.1 0.08, 34.01 0.86 M35.38 -0.56 C33.24 16.21, 32.59 31.8, 35.53 51.83 M34.1 -0.36 C33.34 12.71, 34.64 25.61, 34.18 52.56 M34.88 50.41 C27.76 52.89, 20.64 51.63, 1.35 53.04 M33.75 52.22 C22.88 52.35, 11.62 51.8, 0.68 51.76 M1.09 51.85 C0.74 36.54, 1.28 20.22, 0.17 -1.87 M0.41 51.33 C0.16 36.76, 0.12 21.59, 0.57 0.04" stroke="#5f3dc4" stroke-width="2" fill="none"></path></g><g stroke-linecap="round"><g transform="translate(65.04059459445551 490.1926116377091) rotate(0 10.753139604728233 -1.0931773256481279)"><path d="M0.29 -0.33 C3.38 -0.57, 15.63 -0.98, 19.34 -0.99 C23.04 -1.01, 21.98 -0.36, 22.52 -0.4 M-1.01 -1.55 C1.81 -1.71, 14.44 0.08, 18.22 -0.02 C22 -0.12, 20.92 -2.17, 21.68 -2.17" stroke="#5f3dc4" stroke-width="1" fill="none"></path></g></g><g stroke-linecap="round"><g transform="translate(65.59227341692008 474.66026010326334) rotate(0 11.467564476127677 -0.24131315352985894)"><path d="M-0.33 -0.33 C0.78 -0.62, 3.18 -1.52, 7.12 -1.5 C11.05 -1.48, 20.71 -0.41, 23.27 -0.22 M1.7 -1.54 C3.13 -1.68, 5.7 -0.47, 9.27 -0.04 C12.83 0.4, 20.82 0.95, 23.08 1.06" stroke="#5f3dc4" stroke-width="1" fill="none"></path></g></g><g stroke-linecap="round"><g transform="translate(65.55262115716329 507.5830255906742) rotate(0 11.559664077632647 0.7038781513377899)"><path d="M-0.33 -1.07 C1.74 -0.85, 9.62 0.57, 12.71 0.98 C15.8 1.39, 16.47 1.8, 18.24 1.4 C20 0.99, 22.36 -1.03, 23.31 -1.45 M1.7 0.98 C3.58 0.92, 9.07 -0.88, 11.69 -0.57 C14.31 -0.26, 15.48 2.87, 17.44 2.86 C19.4 2.85, 22.58 0.01, 23.45 -0.61" stroke="#5f3dc4" stroke-width="1" fill="none"></path></g></g><g stroke-linecap="round"><g transform="translate(64.38601240812636 513.3123244866434) rotate(0 12.597576219909001 -0.035101534735815676)"><path d="M-1.07 -0.14 C-0.01 -0.19, 4.51 -0.55, 6.05 -0.63 C7.58 -0.71, 5.46 -0.83, 8.12 -0.62 C10.78 -0.4, 18.98 0.91, 22.01 0.67 C25.03 0.44, 25.34 -1.67, 26.27 -2.03 M0.57 -1.26 C1.6 -1.08, 4.52 0.57, 5.68 0.87 C6.83 1.18, 4.78 0.41, 7.5 0.59 C10.22 0.78, 19.13 2.43, 21.99 1.97 C24.86 1.52, 24.04 -1.34, 24.69 -2.12" stroke="#5f3dc4" stroke-width="1" fill="none"></path></g></g><g stroke-linecap="round"><g transform="translate(64.83198955580968 482.7487137432205) rotate(0 10.476360891327516 -0.25813129870306284)"><path d="M-0.14 1.1 C1.38 1.28, 4.99 0.1, 8.79 -0.02 C12.58 -0.13, 20.22 0.3, 22.62 0.42 M-1.67 0.63 C-0.29 0.52, 3.9 -2.14, 7.81 -1.99 C11.71 -1.85, 19.11 0.86, 21.75 1.48" stroke="#5f3dc4" stroke-width="1" fill="none"></path></g></g><g stroke-linecap="round"><g transform="translate(63.91440891937947 499.55508595532444) rotate(0 11.494789671349622 -0.07005216424772698)"><path d="M1.1 -0.06 C1.98 0.04, 3 0.46, 4.21 0.49 C5.42 0.51, 5.28 0.17, 8.35 0.09 C11.42 0.01, 20.03 -0.07, 22.63 0 M0.22 -1.14 C1.06 -0.84, 2.22 2.07, 3.4 1.92 C4.59 1.77, 4.1 -1.84, 7.33 -2.06 C10.56 -2.27, 20.16 0.16, 22.77 0.63" stroke="#5f3dc4" stroke-width="1" fill="none"></path></g></g><g stroke-linecap="round"><g transform="translate(35 419.90221941318293) rotate(0 304.2443345553568 0.13698640714682142)"><path d="M0.23 0.6 C102.01 0.94, 508.16 1.18, 609.6 0.9 M-1.11 -0.13 C100.66 -0.02, 507.45 -0.72, 608.97 -0.75" stroke="#000000" stroke-width="1" fill="none"></path></g></g><g transform="translate(10 540.9022194131829) rotate(0 71 9.5)"><text x="0" y="15" font-family="Cascadia, Segoe UI Emoji" font-size="16px" fill="#000000" text-anchor="start" style="white-space: pre;" direction="ltr">application.yml</text></g><g stroke-linecap="round" transform="translate(225.9307164568405 472.45067050020214) rotate(0 17.189917524744942 26.084744649673326)"><path d="M-1.19 1.4 L33.26 -1.75 L34.01 52.34 L1.98 52.92" stroke="none" stroke-width="0" fill="#fff"></path><path d="M-0.13 -0.37 C11.63 1.48, 18.59 -1.13, 33.59 -0.46 M0.42 0.67 C10.6 -0.6, 19.07 -0.58, 34.76 -0.23 M34.99 1.22 C32.73 21.17, 33.71 40.25, 35.15 52.08 M33.91 0.01 C35.15 17.88, 34.61 34.51, 33.58 51.88 M33.79 53.12 C21.08 51.31, 7.57 53.75, -1.25 51.81 M34.52 52.44 C21.19 53.05, 8.79 51.7, 0.13 51.43 M-0.43 51.74 C1.87 39.61, 1.86 28.84, -0.46 -0.43 M0.51 51.31 C0.27 37.17, 0.7 19.62, 0.89 -0.45" stroke="#5f3dc4" stroke-width="2" fill="none"></path></g><g stroke-linecap="round" transform="translate(222.25945565509198 469.03592293007443) rotate(0 17.189917524744942 26.084744649673326)"><path d="M1.4 -1.12 L32.63 -0.37 L34.55 54.15 L0.75 50.58" stroke="none" stroke-width="0" fill="#fff"></path><path d="M-0.37 1.54 C15.01 -1.58, 25.8 -0.76, 33.92 -0.4 M0.67 0.97 C7.7 -0.33, 16.08 0.23, 34.15 0.93 M35.6 -1.62 C35.49 14.73, 34.09 31.52, 34.29 52.7 M34.39 0.4 C34.94 19.22, 34.54 37.93, 34.09 52.81 M35.33 51.38 C20.82 50.3, 10.39 50.82, -0.36 53.8 M34.65 52.09 C24.1 52.86, 11.58 52.35, -0.73 51.41 M-0.43 53.66 C-0.87 41.75, 0.05 27.89, -0.43 0.08 M-0.86 52.23 C0.43 39.12, -1.27 25.97, -0.45 -0.59" stroke="#5f3dc4" stroke-width="2" fill="none"></path></g><g stroke-linecap="round" transform="translate(217.6894484936695 465.02101583072715) rotate(0 17.189917524744942 26.084744649673326)"><path d="M-1.12 -1.75 L34.01 0.17 L36.36 52.92 L-1.59 50.47" stroke="none" stroke-width="0" fill="#fff"></path><path d="M1.54 1.61 C10.03 -0.94, 22.49 -0.4, 33.98 -1.13 M0.97 -0.67 C9.45 -0.88, 19.63 -0.46, 35.31 -0.05 M32.76 0.68 C33.9 19.16, 35.31 39.65, 34.91 53.59 M34.78 0.85 C34 13.18, 33.34 25.16, 35.02 52.91 M33.59 51.48 C23.96 54.08, 15.82 51.98, 1.63 52.67 M34.3 53.06 C24.82 51.8, 14.12 51.53, -0.76 51.45 M1.49 51.3 C1.6 36.59, -0.34 20.49, 0.08 -0.81 M0.06 53.02 C0.23 31.51, 0.62 12.12, -0.59 0.7" stroke="#5f3dc4" stroke-width="2" fill="none"></path></g><g stroke-linecap="round"><g transform="translate(224.04059459445557 489.0738152201649) rotate(0 11.211928007149197 -0.40574286699006734)"><path d="M0.92 0.97 C4.05 0.92, 15.16 -0.07, 18.7 -0.53 C22.25 -0.98, 21.57 -1.5, 22.19 -1.78 M-0.05 0.43 C3.45 0.55, 17.37 0.87, 20.91 0.7 C24.45 0.52, 20.9 -0.25, 21.17 -0.61" stroke="#5f3dc4" stroke-width="1" fill="none"></path></g></g><g stroke-linecap="round"><g transform="translate(224.59227341692008 473.5414636857191) rotate(0 10.953756347140256 -0.34907113192292627)"><path d="M0.97 -0.96 C2.27 -1.42, 4.1 -1.93, 7.59 -1.83 C11.07 -1.74, 19.57 -0.64, 21.89 -0.4 M0.02 1.15 C1.74 0.77, 6.49 -0.49, 9.98 -0.54 C13.48 -0.6, 19.08 0.6, 20.98 0.79" stroke="#5f3dc4" stroke-width="1" fill="none"></path></g></g><g stroke-linecap="round"><g transform="translate(224.55262115716323 506.4642291731301) rotate(0 11.215369954076152 -0.5214479776379335)"><path d="M-0.96 -0.6 C0.95 -0.83, 9.21 -0.58, 12.38 -0.4 C15.55 -0.23, 16.24 0.45, 18.06 0.45 C19.87 0.44, 22.23 -0.41, 23.27 -0.45 M0.73 1.7 C2.36 1.56, 8.44 1.04, 11.18 0.99 C13.92 0.94, 15.13 2.03, 17.17 1.41 C19.2 0.79, 22.38 -2.1, 23.39 -2.74" stroke="#5f3dc4" stroke-width="1" fill="none"></path></g></g><g stroke-linecap="round"><g transform="translate(223.38601240812636 512.1935280690992) rotate(0 13.515566068463158 -0.43835444001723545)"><path d="M-0.6 -0.47 C0.02 -0.45, 3.37 -0.78, 4.67 -0.81 C5.96 -0.84, 4.11 -0.97, 7.17 -0.65 C10.22 -0.33, 19.6 1.32, 23.01 1.1 C26.42 0.89, 27.09 -1.42, 27.63 -1.92 M1.28 -1.76 C1.63 -1.47, 2.78 0.22, 3.58 0.6 C4.37 0.99, 2.72 0.81, 6.04 0.54 C9.37 0.27, 20.07 -0.61, 23.52 -1.03 C26.98 -1.44, 26.1 -2.18, 26.77 -1.95" stroke="#5f3dc4" stroke-width="1" fill="none"></path></g></g><g stroke-linecap="round"><g transform="translate(223.83198955580974 481.6299173256763) rotate(0 11.058096847852028 -0.021859268588457326)"><path d="M-0.47 -0.28 C1.12 -0.34, 4.77 -1.25, 8.61 -0.97 C12.45 -0.68, 20.08 0.91, 22.59 1.42 M1.48 -1.47 C2.98 -1.33, 4.17 0.08, 7.53 0.21 C10.9 0.35, 18.9 -0.64, 21.7 -0.65" stroke="#5f3dc4" stroke-width="1" fill="none"></path></g></g><g stroke-linecap="round"><g transform="translate(222.9144089193794 498.4362895377802) rotate(0 11.859459205885742 0.22653339127634808)"><path d="M-0.28 -0.24 C0.37 -0.09, 1.65 0.33, 3.26 0.45 C4.86 0.58, 5.9 0.58, 9.36 0.52 C12.81 0.46, 21.79 0.18, 24 0.11 M1.78 -1.41 C2.87 -1.03, 4.43 1.86, 5.61 1.87 C6.79 1.87, 6.26 -1.22, 8.86 -1.4 C11.45 -1.58, 19.17 0.54, 21.2 0.79" stroke="#5f3dc4" stroke-width="1" fill="none"></path></g></g><g transform="translate(174 539.7834229956387) rotate(0 66 9.5)"><text x="0" y="15" font-family="Cascadia, Segoe UI Emoji" font-size="16px" fill="#000000" text-anchor="start" style="white-space: pre;" direction="ltr">datasource.yml</text></g><g stroke-linecap="round" transform="translate(392.9307164568404 475.45067050020214) rotate(0 17.189917524744942 26.084744649673326)"><path d="M1.82 -0.15 L35.76 0.85 L34.36 53.04 L0.58 53.88" stroke="none" stroke-width="0" fill="#fff"></path><path d="M-1.82 0.21 C14.53 0.26, 27.47 -1.18, 33.43 1.37 M-0.34 0.63 C7.78 -0.6, 16.88 -0.37, 35.15 0.11 M33.49 1.43 C35.29 10.55, 32.97 24.17, 34.7 53.81 M34.45 0.82 C33.48 18.83, 34.52 39.26, 33.4 51.23 M36.28 51.84 C22.12 50.69, 9.5 51.72, -1.08 54.14 M34.9 53.01 C25.98 52.38, 18.95 52.74, 0.06 51.18 M1.23 50.73 C1.94 38.11, -0.85 23.11, -1.13 0.48 M-0.59 51.61 C-0.03 39.38, 0.97 25.54, -0.91 -0.51" stroke="#5f3dc4" stroke-width="2" fill="none"></path></g><g stroke-linecap="round" transform="translate(389.2594556550921 472.03592293007443) rotate(0 17.189917524744942 26.084744649673326)"><path d="M-0.15 1.38 L35.23 -0.02 L35.25 52.75 L1.71 51.73" stroke="none" stroke-width="0" fill="#fff"></path><path d="M0.21 1.45 C12.29 1.63, 22.78 -0.64, 35.75 -0.95 M0.63 -0.89 C7.06 -0.35, 14.74 0.89, 34.49 -0.66 M35.81 0.96 C32.3 13.77, 33.69 30.56, 36.02 53.54 M35.2 -0.69 C34.2 13.86, 35.41 26.03, 33.44 52.9 M34.05 52.74 C23.94 53.27, 15.78 51.41, 1.97 50.93 M35.22 51.96 C21.77 53.28, 9.27 52.41, -0.99 51.97 M-1.44 53.79 C0.49 38.59, 0.13 26.24, 0.48 -0.73 M-0.56 51.95 C0.6 39.24, 0.52 23.86, -0.51 0.91" stroke="#5f3dc4" stroke-width="2" fill="none"></path></g><g stroke-linecap="round" transform="translate(384.6894484936695 468.02101583072715) rotate(0 17.189917524744942 26.084744649673326)"><path d="M1.38 0.85 L34.36 0.87 L34.96 53.88 L-0.44 52.54" stroke="none" stroke-width="0" fill="#fff"></path><path d="M1.45 0.36 C12.67 -1.11, 21.76 1.33, 33.43 -1.66 M-0.89 -0.39 C11.91 -0.38, 25.53 -0.11, 33.72 -0.1 M35.34 -1.68 C32.79 11.36, 34.46 24.93, 35.75 51.35 M33.69 -0.39 C34.77 18.59, 33.44 34.59, 35.11 51.84 M34.95 50.92 C27.19 51.9, 17.37 54.09, -1.24 53.65 M34.17 52.42 C25.32 53.06, 14.46 51.47, -0.19 51.55 M1.62 52.75 C-1.5 35.89, -1.45 19.68, -0.73 -0.75 M-0.22 53.14 C1.08 33.73, -0.6 13.01, 0.91 -0.07" stroke="#5f3dc4" stroke-width="2" fill="none"></path></g><g stroke-linecap="round"><g transform="translate(391.04059459445557 492.0738152201649) rotate(0 11.182191553579514 -0.9626328616139403)"><path d="M0.87 0.22 C4.46 0.1, 16.92 -0.42, 20.45 -0.57 C23.99 -0.72, 21.81 -0.36, 22.09 -0.68 M-0.13 -0.72 C3.47 -0.7, 16.39 0.95, 19.92 0.63 C23.44 0.32, 20.67 -2.17, 21.02 -2.6" stroke="#5f3dc4" stroke-width="1" fill="none"></path></g></g><g stroke-linecap="round"><g transform="translate(391.5922734169201 476.5414636857191) rotate(0 10.927899817759112 -0.5929682717978721)"><path d="M0.22 0.79 C1.45 0.32, 3.75 -1.68, 7.54 -1.94 C11.34 -2.19, 20.71 -1.15, 22.99 -0.73 M-1.13 0.16 C0.49 -0.23, 5.95 -0.72, 9.92 -0.7 C13.88 -0.68, 20.82 0.44, 22.65 0.29" stroke="#5f3dc4" stroke-width="1" fill="none"></path></g></g><g stroke-linecap="round"><g transform="translate(391.55262115716323 509.4642291731301) rotate(0 12.301420702356438 0.13146955196276622)"><path d="M0.79 -0.64 C2.69 -0.56, 9.45 0.57, 12.28 0.7 C15.1 0.82, 15.73 0.47, 17.73 0.13 C19.72 -0.22, 23.14 -1.01, 24.23 -1.37 M-0.26 1.63 C1.36 1.36, 8.21 -0.88, 11.03 -1 C13.85 -1.11, 14.36 0.84, 16.66 0.92 C18.97 1.01, 23.77 0.04, 24.86 -0.48" stroke="#5f3dc4" stroke-width="1" fill="none"></path></g></g><g stroke-linecap="round"><g transform="translate(390.38601240812636 515.1935280690992) rotate(0 13.190738332382523 0.027372206865891258)"><path d="M-0.64 -0.57 C0.28 -0.89, 4.52 -1.29, 5.77 -1.14 C7.01 -0.99, 4.13 -0.05, 6.85 0.31 C9.57 0.68, 19 1.37, 22.09 1.06 C25.18 0.74, 24.76 -1.19, 25.4 -1.58 M1.22 1.74 C2.04 1.51, 3.91 0.66, 5.25 0.1 C6.58 -0.47, 6.41 -1.45, 9.22 -1.65 C12.03 -1.85, 19.15 -1.14, 22.12 -1.1 C25.09 -1.07, 26.21 -1.21, 27.03 -1.44" stroke="#5f3dc4" stroke-width="1" fill="none"></path></g></g><g stroke-linecap="round"><g transform="translate(390.83198955580974 484.6299173256763) rotate(0 11.487946828623592 0.15899477073372736)"><path d="M-0.57 0.82 C0.68 0.71, 4.26 -1.23, 8.28 -1.29 C12.3 -1.34, 21 0.31, 23.55 0.5 M1.33 0.21 C2.3 0.27, 3.39 -0.51, 7.03 -0.27 C10.67 -0.04, 20.29 1.49, 23.16 1.6" stroke="#5f3dc4" stroke-width="1" fill="none"></path></g></g><g stroke-linecap="round"><g transform="translate(389.9144089193794 501.4362895377802) rotate(0 10.77564800347784 0.10944259012813973)"><path d="M0.82 -0.57 C1.42 -0.24, 1.67 1.24, 2.94 1.42 C4.21 1.59, 5.3 0.63, 8.44 0.47 C11.57 0.31, 19.45 0.41, 21.76 0.45 M-0.21 1.74 C0.81 1.78, 3.85 0.21, 5.13 -0.33 C6.4 -0.86, 4.73 -1.75, 7.45 -1.47 C10.17 -1.2, 18.66 0.89, 21.45 1.31" stroke="#5f3dc4" stroke-width="1" fill="none"></path></g></g><g transform="translate(349 541.7834229956387) rotate(0 52 9.5)"><text x="0" y="15" font-family="Cascadia, Segoe UI Emoji" font-size="16px" fill="#000000" text-anchor="start" style="white-space: pre;" direction="ltr">gateway.yml</text></g><g stroke-linecap="round" transform="translate(543.9307164568404 479.45067050020214) rotate(0 17.189917524744942 26.084744649673326)"><path d="M1.66 1.07 L33.21 -1.67 L33.32 52.62 L-1.84 53.33" stroke="none" stroke-width="0" fill="#fff"></path><path d="M0.04 -0.45 C8.78 -0.23, 14.52 -1.28, 35.51 0.84 M0.21 -0.53 C9.9 0.61, 21.42 0.12, 33.55 -0.65 M35.93 0.81 C33.48 10.53, 35.65 24.5, 34.56 50.19 M34.96 0.78 C34.18 19.43, 33.28 39.28, 34.57 51.62 M35.41 51.98 C28.12 51.02, 18.71 54.27, 1.08 53.68 M34.07 51.23 C21.3 53.2, 8.61 51.68, 0.66 51.45 M0.48 53.48 C-2.42 34.13, -2.15 21.34, 1.54 -1.81 M0.19 51.27 C-0.01 33.69, 0.52 16.38, -0.16 -0.42" stroke="#5f3dc4" stroke-width="2" fill="none"></path></g><g stroke-linecap="round" transform="translate(540.2594556550921 476.03592293007443) rotate(0 17.189917524744942 26.084744649673326)"><path d="M1.07 -1.17 L32.71 -1.06 L34.83 50.33 L1.16 50.92" stroke="none" stroke-width="0" fill="#fff"></path><path d="M-0.45 1.36 C12.77 -0.32, 25 1.12, 35.21 0.3 M-0.53 -0.94 C12.63 -0.33, 24.05 -0.91, 33.73 -0.79 M35.19 -1.3 C33.14 20.59, 35.58 39.62, 32.4 53.53 M35.16 0.24 C34.12 10.53, 34.77 22.56, 33.83 51.19 M34.19 52.84 C22.39 50.54, 15.06 53.43, 1.51 53.73 M33.44 52.08 C26.44 52.29, 16.13 52.73, -0.72 52.28 M1.31 50.23 C-1.36 30.01, 2.06 12.71, -1.81 0.76 M-0.9 51.65 C-0.41 41.58, -0.09 30.81, -0.42 0.83" stroke="#5f3dc4" stroke-width="2" fill="none"></path></g><g stroke-linecap="round" transform="translate(535.6894484936695 472.02101583072715) rotate(0 17.189917524744942 26.084744649673326)"><path d="M-1.17 -1.67 L33.32 0.45 L32.54 53.33 L-1.25 50.98" stroke="none" stroke-width="0" fill="#fff"></path><path d="M1.36 -0.5 C7.21 -1.48, 16.19 0.91, 34.68 0.93 M-0.94 0.72 C11.21 0.42, 22.11 -0.46, 33.59 0.78 M33.08 -1 C35.65 14.67, 34.96 24.46, 35.74 50.46 M34.62 0.23 C34.03 11.64, 34.88 20.97, 33.4 52.25 M35.05 50.76 C19.65 53.98, 9.61 53.65, 1.56 51.29 M34.29 53.03 C22.63 51.19, 11.09 51.13, 0.11 53.1 M-1.94 50.34 C-1.79 42.81, 1.41 28.47, 0.76 -1.94 M-0.52 51.33 C-0.08 40.34, -0.25 29.13, 0.83 0.53" stroke="#5f3dc4" stroke-width="2" fill="none"></path></g><g stroke-linecap="round"><g transform="translate(542.0405945944556 496.0738152201649) rotate(0 11.5623762373138 -1.4371829941413239)"><path d="M0.82 -0.3 C4.06 -0.4, 15.72 -0.74, 19.48 -0.86 C23.23 -0.97, 22.78 -0.99, 23.34 -1 M-0.21 -1.51 C2.85 -1.46, 14.57 0.45, 18.43 0.19 C22.29 -0.07, 22.13 -2.52, 22.93 -3.08" stroke="#5f3dc4" stroke-width="1" fill="none"></path></g></g><g stroke-linecap="round"><g transform="translate(542.5922734169201 480.5414636857191) rotate(0 11.181707370872516 -0.5699781300838822)"><path d="M-0.3 -0.19 C0.95 -0.44, 3.43 -0.72, 7.25 -0.68 C11.08 -0.65, 20.09 -0.13, 22.67 0.02 M1.74 -1.33 C3.39 -2, 6.07 -2.91, 9.48 -2.45 C12.88 -1.99, 19.87 0.77, 22.16 1.44" stroke="#5f3dc4" stroke-width="1" fill="none"></path></g></g><g stroke-linecap="round"><g transform="translate(542.5526211571632 513.4642291731301) rotate(0 11.31407364131843 0.088645944633015)"><path d="M-0.19 -0.93 C1.93 -0.82, 10.41 -0.06, 13.53 0.38 C16.64 0.81, 16.75 1.86, 18.48 1.68 C20.21 1.5, 23.18 -0.07, 23.92 -0.7 M-1.75 1.19 C0.2 0.97, 9.68 -1.22, 12.93 -1.48 C16.19 -1.74, 15.9 -0.71, 17.81 -0.37 C19.72 -0.03, 23.22 0.86, 24.37 0.54" stroke="#5f3dc4" stroke-width="1" fill="none"></path></g></g><g stroke-linecap="round"><g transform="translate(541.3860124081264 519.1935280690992) rotate(0 13.000240546277894 -0.41658577050617396)"><path d="M-0.93 0.68 C0.02 0.65, 3.89 -0.27, 5.45 -0.39 C7 -0.5, 5.52 -0.01, 8.4 -0.01 C11.29 0, 19.94 -0.29, 22.76 -0.34 C25.58 -0.38, 24.77 -0.17, 25.34 -0.25 M0.78 -0.01 C1.65 0.19, 3.57 1.6, 4.76 1.25 C5.95 0.89, 4.87 -2, 7.93 -2.14 C10.99 -2.27, 19.97 -0.02, 23.14 0.44 C26.31 0.89, 26.22 0.95, 26.93 0.59" stroke="#5f3dc4" stroke-width="1" fill="none"></path></g></g><g stroke-linecap="round"><g transform="translate(541.8319895558097 488.6299173256763) rotate(0 11.403326329455012 0.48930971789650357)"><path d="M0.68 0.5 C2.22 0.7, 5.27 0.16, 9.03 0.27 C12.79 0.38, 21.04 1.25, 23.23 1.17 M-0.42 -0.28 C0.99 -0.36, 4.33 -2.05, 8.18 -1.56 C12.03 -1.08, 20.36 2.31, 22.68 2.62" stroke="#5f3dc4" stroke-width="1" fill="none"></path></g></g><g stroke-linecap="round"><g transform="translate(540.9144089193794 505.4362895377802) rotate(0 10.5021554606746 0.4010684298917795)"><path d="M0.5 0.18 C1.41 0.25, 3.06 1.28, 4.49 1.1 C5.93 0.91, 6.24 -1.03, 9.11 -0.92 C11.97 -0.81, 19.46 1.43, 21.7 1.78 M-0.69 -0.77 C0.18 -1.13, 2.31 -0.95, 3.84 -0.81 C5.37 -0.67, 5.56 -0.02, 8.48 0.06 C11.39 0.15, 18.68 -0.6, 21.35 -0.32" stroke="#5f3dc4" stroke-width="1" fill="none"></path></g></g><g transform="translate(506 541.7834229956387) rotate(0 52 9.5)"><text x="0" y="15" font-family="Cascadia, Segoe UI Emoji" font-size="16px" fill="#000000" text-anchor="start" style="white-space: pre;" direction="ltr">swagger.yml</text></g><g stroke-linecap="round"><g transform="translate(388 282.90221941318293) rotate(0 -0.41940325469244044 17.94076248534492)"><path d="M-0.13 -0.78 C0.11 5.09, 0.76 29.37, 0.82 35.43 M-1.66 1.43 C-1.46 7.44, 0.1 30.79, 0.31 36.66" stroke="#000000" stroke-width="1" fill="none"></path></g><g transform="translate(388 282.90221941318293) rotate(0 -0.41940325469244044 17.94076248534492)"><path d="M-7.9 21.33 C-5.81 24.58, -3.85 30.09, -0.44 36.62 M-6.76 20.02 C-3.12 27.25, -1.19 33.87, -0.54 37.16" stroke="#000000" stroke-width="1" fill="none"></path></g><g transform="translate(388 282.90221941318293) rotate(0 -0.41940325469244044 17.94076248534492)"><path d="M4.39 20.68 C3.42 24.08, 2.32 29.75, -0.44 36.62 M5.54 19.37 C4.31 26.84, 1.37 33.73, -0.54 37.16" stroke="#000000" stroke-width="1" fill="none"></path></g></g><g stroke-linecap="round"><g transform="translate(174 273.90221941318293) rotate(0 85.08139543562197 0.029072907725321784)"><path d="M-0.04 0.2 C28.16 0.19, 141.13 -0.65, 169.32 -0.49 M-1.51 -0.73 C27.06 -0.55, 142.84 0.76, 171.68 0.79" stroke="#000000" stroke-width="1" fill="none"></path></g><g transform="translate(174 273.90221941318293) rotate(0 85.08139543562197 0.029072907725321784)"><path d="M143.76 9.72 C151.52 6.2, 163.21 3.29, 170.35 -0.79 M143.24 10.4 C153.08 7.83, 162.24 3.98, 172.09 0.32" stroke="#000000" stroke-width="1" fill="none"></path></g><g transform="translate(174 273.90221941318293) rotate(0 85.08139543562197 0.029072907725321784)"><path d="M143.9 -10.8 C151.55 -7.87, 163.19 -4.32, 170.35 -0.79 M143.38 -10.12 C153.13 -5.86, 162.23 -2.88, 172.09 0.32" stroke="#000000" stroke-width="1" fill="none"></path></g></g><g stroke-linecap="round"><g transform="translate(92.00000000000006 132.902219413183) rotate(0 150.9412690036069 43.264659314602596)"><path d="M-1.08 -0.6 C-1.45 8.07, -51.46 44.75, -1.47 51.82 C48.52 58.89, 247.46 35.92, 298.87 41.81 C350.28 47.69, 305.81 79.76, 306.97 87.13 M0.55 1.7 C0 10.05, -52.24 43.33, -2.14 50.13 C47.96 56.93, 249.53 36.66, 301.17 42.5 C352.81 48.34, 307.21 77.84, 307.72 85.16" stroke="#1864ab" stroke-width="1" fill="none"></path></g><g transform="translate(92.00000000000006 132.902219413183) rotate(0 150.9412690036069 43.264659314602596)"><path d="M312.57 65.14 C312.77 69.93, 307.29 81.03, 309.6 84.84 M314.23 64.36 C311.18 69.75, 309.26 76.66, 307.68 84.7" stroke="#1864ab" stroke-width="1" fill="none"></path></g><g transform="translate(92.00000000000006 132.902219413183) rotate(0 150.9412690036069 43.264659314602596)"><path d="M324.64 73.78 C320.47 75.32, 310.59 83.28, 309.6 84.84 M326.3 73 C319.67 75.91, 314.11 80.21, 307.68 84.7" stroke="#1864ab" stroke-width="1" fill="none"></path></g></g><g stroke-linecap="round"><g transform="translate(457 127.90221941318293) rotate(0 126.1380149655044 115.0424680326179)"><path d="M-0.56 -0.52 C41.5 21.44, 242.61 92.64, 252.84 131.16 C263.07 169.69, 92.52 214.06, 60.8 230.61" stroke="#2b8a3e" stroke-width="1.5" fill="none" stroke-dasharray="1.5 7"></path></g><g transform="translate(457 127.90221941318293) rotate(0 126.1380149655044 115.0424680326179)"><path d="M82.73 210.85 C76.13 215.55, 67.3 224.96, 59.63 230.06" stroke="#2b8a3e" stroke-width="1.5" fill="none" stroke-dasharray="1.5 5"></path></g><g transform="translate(457 127.90221941318293) rotate(0 126.1380149655044 115.0424680326179)"><path d="M89.93 230.06 C81.01 228.29, 69.77 231.25, 59.63 230.06" stroke="#2b8a3e" stroke-width="1.5" fill="none" stroke-dasharray="1.5 5"></path></g></g><g stroke-linecap="round"><g transform="translate(559 127.90221941318293) rotate(0 32.596298805027345 108.01394869759679)"><path d="M1.04 0.05 C20.52 22.51, 125.61 99.19, 116.83 135.18 C108.05 171.16, -23.28 202.61, -51.64 215.98" stroke="#5f3dc4" stroke-width="1.5" fill="none" stroke-dasharray="1.5 7"></path></g><g transform="translate(559 127.90221941318293) rotate(0 32.596298805027345 108.01394869759679)"><path d="M-28.35 195.03 C-35.03 203.68, -40.64 206.57, -50.98 214.1" stroke="#5f3dc4" stroke-width="1.5" fill="none" stroke-dasharray="1.5 5"></path></g><g transform="translate(559 127.90221941318293) rotate(0 32.596298805027345 108.01394869759679)"><path d="M-21.56 214.39 C-30.33 217.31, -37.98 214.39, -50.98 214.1" stroke="#5f3dc4" stroke-width="1.5" fill="none" stroke-dasharray="1.5 5"></path></g></g><g stroke-linecap="round"><g transform="translate(194.8448778079487 125.90221941318293) rotate(0 -30.31154503786189 45.475016696006065)"><path d="M-0.7 -1.11 C-10.74 14.05, -50.8 76.76, -60.82 92.06 M1.13 0.92 C-9.01 16.28, -51.31 75.35, -61.76 90.49" stroke="#5c940d" stroke-width="1" fill="none"></path></g><g transform="translate(194.8448778079487 125.90221941318293) rotate(0 -30.31154503786189 45.475016696006065)"><path d="M-55.77 61.57 C-53.87 68.86, -58.17 75.67, -60.73 89.27 M-53.05 61.5 C-56.68 72.77, -58.4 82.09, -61.76 90.91" stroke="#5c940d" stroke-width="1" fill="none"></path></g><g transform="translate(194.8448778079487 125.90221941318293) rotate(0 -30.31154503786189 45.475016696006065)"><path d="M-38.99 73.38 C-41.43 77.59, -49.97 81.42, -60.73 89.27 M-36.27 73.31 C-45.94 80.44, -53.6 85.58, -61.76 90.91" stroke="#5c940d" stroke-width="1" fill="none"></path></g></g><g stroke-linecap="round"><g transform="translate(282.3251372437287 126.83392895779104) rotate(0 -56.987737015179164 38.272965057787616)"><path d="M-0.21 -0.09 C-18.81 12.84, -94.08 63.54, -112.65 76.5 M-1.78 -1.19 C-20.48 11.99, -95.39 64.93, -113.76 77.74" stroke="#c92a2a" stroke-width="1" fill="none"></path></g><g transform="translate(282.3251372437287 126.83392895779104) rotate(0 -56.987737015179164 38.272965057787616)"><path d="M-96.75 52.6 C-101.42 59.52, -103.14 64.42, -112.84 78.46 M-97.2 53.89 C-102.91 62.42, -108.65 70.57, -113.56 78.19" stroke="#c92a2a" stroke-width="1" fill="none"></path></g><g transform="translate(282.3251372437287 126.83392895779104) rotate(0 -56.987737015179164 38.272965057787616)"><path d="M-84.95 69.39 C-91.97 72.72, -96.21 74.05, -112.84 78.46 M-85.4 70.68 C-94.96 73.66, -104.64 76.19, -113.56 78.19" stroke="#c92a2a" stroke-width="1" fill="none"></path></g></g><g stroke-linecap="round"><g transform="translate(356 126.90221941318293) rotate(0 -75.98972428745122 45.94193175299557)"><path d="M1.04 1 C-24.36 16.13, -126.87 76.33, -152.39 91.41 M0.13 0.48 C-25.37 15.18, -127.6 74.68, -153.02 89.5" stroke="#495057" stroke-width="1" fill="none"></path></g><g transform="translate(356 126.90221941318293) rotate(0 -75.98972428745122 45.94193175299557)"><path d="M-132.16 67.46 C-138.74 75.01, -144.35 80.39, -154.7 89.53 M-132.99 65.76 C-139.81 72.17, -145.33 78.62, -152.07 89.92" stroke="#495057" stroke-width="1" fill="none"></path></g><g transform="translate(356 126.90221941318293) rotate(0 -75.98972428745122 45.94193175299557)"><path d="M-121.83 85.2 C-131.58 87.54, -140.27 87.64, -154.7 89.53 M-122.66 83.5 C-132.47 85.03, -140.86 86.57, -152.07 89.92" stroke="#495057" stroke-width="1" fill="none"></path></g></g><g stroke-linecap="round" transform="translate(70 17.902219413182934) rotate(0 32 32)"><path d="M27.57 1.16 C33.39 -0.3, 41.64 0.79, 47.17 3.58 C52.7 6.36, 58.16 12.46, 60.75 17.85 C63.33 23.24, 63.76 29.86, 62.68 35.91 C61.6 41.96, 58.43 49.42, 54.25 54.18 C50.07 58.93, 43.83 63.22, 37.6 64.44 C31.38 65.65, 22.63 64.47, 16.9 61.45 C11.17 58.42, 6 52.04, 3.22 46.3 C0.43 40.56, -0.85 32.97, 0.17 27 C1.2 21.02, 4.16 14.91, 9.35 10.46 C14.54 6.01, 26.6 1.72, 31.32 0.29 C36.04 -1.14, 37.61 1.29, 37.68 1.9 M32.04 -1.19 C38.01 -1.28, 47.29 2.68, 52.23 6.82 C57.16 10.96, 59.83 17.98, 61.64 23.64 C63.46 29.31, 64.72 35.24, 63.11 40.83 C61.51 46.42, 57.31 53.26, 52 57.2 C46.7 61.14, 37.55 64.37, 31.26 64.44 C24.96 64.51, 19.27 61.23, 14.22 57.61 C9.18 54, 3.17 48.5, 0.98 42.77 C-1.2 37.04, -1.06 29.19, 1.14 23.22 C3.33 17.25, 9.19 10.84, 14.16 6.94 C19.13 3.04, 28.02 0.72, 30.98 -0.16 C33.93 -1.04, 31.47 0.98, 31.9 1.65" stroke="none" stroke-width="0" fill="#62a1d6"></path><path d="M23.64 0.99 C29.35 -0.99, 37.07 0.3, 42.98 2.47 C48.89 4.65, 55.65 9.09, 59.11 14.03 C62.58 18.97, 63.91 25.91, 63.76 32.11 C63.6 38.31, 61.89 46.13, 58.18 51.23 C54.47 56.34, 47.5 60.85, 41.49 62.74 C35.48 64.62, 28.22 64.53, 22.14 62.56 C16.06 60.59, 8.87 56.14, 5.02 50.91 C1.17 45.69, -1.17 37.63, -0.96 31.2 C-0.75 24.77, 1.71 17.48, 6.29 12.31 C10.87 7.15, 22.65 1.99, 26.53 0.21 C30.4 -1.57, 29.58 1.07, 29.53 1.64 M42.11 2.64 C47.76 4.11, 52.6 7.81, 56.28 12.52 C59.96 17.23, 63.65 24.42, 64.2 30.91 C64.76 37.4, 62.96 46.15, 59.6 51.45 C56.24 56.75, 50.11 60.67, 44.05 62.71 C37.98 64.75, 29.53 65.35, 23.21 63.71 C16.88 62.06, 10.09 58.18, 6.1 52.85 C2.12 47.52, -0.69 38.1, -0.71 31.75 C-0.73 25.41, 2.17 19.57, 5.99 14.8 C9.81 10.04, 16.2 5.26, 22.2 3.15 C28.2 1.03, 38.96 2.53, 42 2.13 C45.03 1.72, 40.82 0.15, 40.39 0.71" stroke="#000000" stroke-width="1" fill="none"></path></g><g stroke-linecap="round"><g transform="translate(79.29369346775559 96.8008248016032) rotate(0 21.177625006829032 -45.85300791512506)" fill-rule="evenodd"><path d="M-0.48 -57.68 L1.44 -37.36 L10.93 -36.95 L8.92 -44.12 L30.23 -31.42 L26.76 -30.4 L33.53 -26.22 L37.21 -26.62 L41.63 -24.91 L41.11 -31.46 L37.32 -32.96 L34.14 -32.46 L30.65 -33.94 L31.57 -32.24 L12.5 -44.55 L28.49 -46.22 L29.13 -44.3 L34.25 -46.51 L33.69 -43.56 L43.29 -40.63 L44.58 -50.58 L33.38 -51.11 L33.3 -48.23 L28.59 -48.72 L29.66 -47.41 L15.81 -47.14 L32.18 -58.83 L30.73 -55.56 L33.68 -61.53 L35.96 -58.47 L43.04 -56.89 L43.97 -66.24 L34.53 -65.96 L36.43 -64.76 L28.69 -62.57 L30.28 -59.84 L11.69 -49.5 L11.25 -55.49 L1.9 -56.61" stroke="none" stroke-width="0" fill="#fff" fill-rule="evenodd"></path><path d="M-1.09 -58.1 C-0.34 -48.46, -0.64 -41.85, 1.37 -36.88 M0.76 -57.47 C0.41 -51.23, 0.86 -44.95, -0.39 -37.49 M-0.02 -37.46 C1.78 -37.32, 5.02 -38.32, 9.99 -37.61 M0.63 -38.6 C3.27 -38.24, 6.27 -37.9, 10.6 -37.76 M9.83 -37.56 C9.81 -41.24, 10.44 -42.73, 10.77 -44.84 M9.83 -38.32 C10.41 -40.74, 10.24 -43.68, 10.53 -45.23 M10.57 -44.86 C18.75 -42.33, 23.21 -36.21, 29.45 -30.59 M9.94 -45.8 C17.64 -40.39, 25.57 -33.91, 29.6 -31.24 M30.4 -31.53 C29.9 -30.75, 29.07 -29.7, 29 -28.72 M30.05 -31.4 C29.77 -30.93, 29.53 -30.1, 28.71 -28.91 M29.12 -28.46 C30.62 -28.53, 33.43 -27.56, 35.93 -27.34 M28.9 -28.71 C30.55 -28.24, 31.81 -28.56, 35.39 -27.95 M35.11 -27.87 C35.45 -27.2, 35.38 -26.17, 35.46 -24.66 M35.22 -27.55 C35.28 -26.82, 35.36 -25.73, 35.18 -24.92 M34.75 -24.12 C37.53 -24.32, 38.45 -24.96, 42.47 -25.27 M35.26 -24.84 C37.6 -24.84, 40 -25.13, 43.11 -25.02 M42.71 -25.27 C42.67 -26.63, 42.81 -28.35, 43.39 -32.72 M42.55 -24.84 C42.59 -28.44, 42.63 -31.48, 42.94 -33.03 M42.81 -32.52 C41.95 -32.43, 39.29 -33.26, 35.81 -32.25 M42.73 -33.25 C40.64 -32.71, 38.99 -32.92, 35.62 -32.76 M35.43 -32.75 C35.28 -32.28, 35.35 -31.18, 35.15 -30.66 M35.44 -32.78 C35.35 -32, 35.37 -30.99, 35.3 -30.48 M35.03 -30.75 C34.65 -31.91, 32.57 -33.78, 32.11 -34.9 M35.53 -30.39 C34.47 -31.92, 33.72 -33.3, 32.55 -35.43 M32.66 -35.15 C32.26 -34.91, 31.64 -34.1, 30.96 -33.05 M32.52 -35.11 C32.25 -34.7, 31.83 -34.14, 30.99 -33.32 M30.94 -31.97 C26.57 -35.95, 22.86 -38.9, 14.27 -47.73 M31.9 -33.24 C27.05 -36.35, 23.89 -39.37, 13.84 -45.67 M14.5 -46.79 C16.68 -46.96, 21.54 -44.99, 28.47 -45.14 M14.3 -46.3 C17.66 -46.6, 21.47 -46.01, 28.09 -46.62 M28.59 -45.95 C28.67 -45.18, 28.43 -44.49, 28.38 -44 M28.54 -46.06 C28.42 -45.33, 28.48 -44.69, 28.31 -43.99 M28.96 -44 C29.92 -44.86, 32.01 -44.92, 35.07 -45.71 M28.74 -43.82 C30.49 -44.81, 32.74 -45.35, 34.7 -46.06 M34.75 -46.4 C35.02 -45.08, 34.62 -44.82, 34.99 -42.6 M34.74 -46.18 C34.62 -45.16, 34.93 -43.7, 34.69 -42.48 M35.51 -42.44 C37.53 -41.96, 40.65 -42.11, 42.43 -41.99 M34.62 -42.07 C37.2 -42.16, 39.32 -42.24, 42.99 -42.27 M42.48 -42.16 C42.95 -45.74, 41.94 -49.13, 43.02 -49.93 M42.4 -42.75 C42.83 -45.49, 42.88 -48.72, 42.59 -50.5 M42.49 -49.68 C40.08 -50.52, 37.47 -49.6, 34.89 -49.76 M43.16 -50.84 C40.67 -50.09, 38.09 -50.14, 34.93 -50.44 M34.62 -50.29 C34.58 -49.76, 34.81 -48.67, 34.84 -48.04 M34.7 -50.46 C34.81 -49.74, 34.78 -48.91, 34.65 -48.06 M34.18 -48.45 C32.36 -49.27, 30.26 -50.12, 29.06 -50.11 M34.6 -47.97 C33.6 -48.63, 32.49 -49.1, 28.69 -50.5 M28.49 -50.61 C28.42 -50.06, 28.33 -49.43, 28.4 -48.75 M28.39 -50.54 C28.41 -49.91, 28.57 -49.5, 28.51 -48.87 M28.89 -47.81 C22.99 -49.91, 19.23 -49.72, 12.9 -47.67 M28.36 -48.86 C23.53 -48.35, 18.49 -49.5, 14.29 -48.59 M15.97 -49.13 C19.57 -52.04, 21.54 -54.88, 31.91 -57.88 M13.54 -49.8 C18.61 -50.71, 21.64 -54.08, 31.06 -59.42 M30.66 -58.67 C30.86 -57.89, 31.15 -57.56, 31.91 -56.61 M30.66 -58.63 C30.92 -57.92, 31.33 -57.38, 31.95 -56.7 M31.53 -56.29 C32.76 -58.16, 33.8 -58.78, 35.09 -61.28 M32.01 -56.86 C32.69 -58.26, 33.75 -59.85, 34.6 -61.12 M34.65 -61.23 C34.87 -60.53, 34.79 -59.62, 34.76 -58.52 M34.68 -61.14 C34.8 -60.18, 34.82 -59.26, 34.67 -58.47 M34.76 -58.62 C36.84 -58.26, 39.14 -59.05, 42.02 -58.61 M34.69 -58.24 C37.86 -58.51, 39.83 -58.73, 42.91 -58.54 M43.44 -58.29 C42.3 -60.14, 42.54 -62.66, 42.59 -66.25 M42.81 -58.65 C42.4 -62.03, 42.51 -65.39, 42.96 -67.05 M42.21 -67.31 C40.51 -66.55, 38.52 -67.48, 33.85 -67.58 M42.3 -66.96 C40.13 -66.76, 37.21 -66.47, 34.57 -66.76 M34.63 -66.61 C34.51 -65.74, 34.31 -64.76, 34.66 -63.31 M34.55 -66.81 C34.46 -65.84, 34.44 -64.81, 34.59 -63.53 M34.97 -63.47 C32.45 -63.19, 31.45 -63.11, 28.76 -63.02 M34.34 -63.32 C33.21 -63.24, 32.11 -62.91, 28.97 -62.3 M28.61 -62.42 C28.7 -62.07, 29.2 -61.32, 29.51 -60.13 M28.6 -62.62 C28.81 -61.88, 29.02 -61.49, 29.58 -60.07 M27.81 -58.93 C21.52 -57.59, 14.76 -54.27, 10.93 -49.57 M30.39 -60.49 C23.21 -55.86, 16.22 -52.79, 10.34 -49.79 M10.58 -49.67 C10.15 -51.56, 9.87 -53.48, 10.45 -57.43 M10.06 -49.27 C9.89 -51.54, 10.25 -53.96, 10.15 -57.34 M9.69 -57.63 C5.87 -57.92, 3.97 -57.01, -0.84 -58.03 M9.84 -57.62 C6.86 -57.52, 2.6 -57.58, 0.13 -57.2 M0 -57.22 C0 -57.22, 0 -57.22, 0 -57.22 M0 -57.22 C0 -57.22, 0 -57.22, 0 -57.22" stroke="#000000" stroke-width="1" fill="none"></path></g></g><g stroke-linecap="round" transform="translate(160.52920532226557 37.680051444432934) rotate(0 16.402493701168595 16.22216796875)"><path d="M15.41 -0.24 C18.41 -0.25, 22.45 1.68, 25.24 3.85 C28.02 6.01, 31.12 9.06, 32.12 12.76 C33.12 16.45, 33.15 22.98, 31.25 26.01 C29.34 29.05, 24.25 30.09, 20.69 30.97 C17.13 31.84, 13.22 32.35, 9.9 31.26 C6.58 30.17, 2.06 27.64, 0.76 24.43 C-0.54 21.22, 1.1 15.75, 2.08 11.99 C3.06 8.23, 2.81 3.36, 6.65 1.88 C10.5 0.41, 20.95 1.46, 25.16 3.15 C29.36 4.84, 32.13 12.11, 31.88 12.04" stroke="none" stroke-width="0" fill="#5c940d"></path><path d="M24.84 2.3 C27.94 3.97, 28.72 7.77, 29.98 11.06 C31.24 14.35, 33.27 18.65, 32.41 22.05 C31.56 25.45, 28.1 29.68, 24.85 31.47 C21.6 33.27, 16.11 33.44, 12.94 32.79 C9.77 32.15, 8.01 30.21, 5.85 27.6 C3.68 24.98, 0.14 20.7, -0.07 17.09 C-0.27 13.49, 2.69 8.97, 4.62 5.96 C6.55 2.95, 7.31 -0.98, 11.49 -0.97 C15.67 -0.95, 25.98 3.33, 29.72 6.05 C33.46 8.76, 34 14.58, 33.92 15.32" stroke="#5c940d" stroke-width="1.5" fill="none" stroke-dasharray="8 9"></path></g><g stroke-linecap="round" transform="translate(165.07335387259474 49.369916035355914) rotate(0 4.763651850419876 4.54303210878291)"><path d="M5.2 -1.71 C6.35 -1.54, 7.72 -0.06, 8.32 1.07 C8.93 2.2, 8.51 4.23, 8.82 5.07 C9.12 5.91, 10.73 5.58, 10.13 6.09 C9.53 6.6, 6.52 7.98, 5.22 8.16 C3.92 8.33, 3.12 7.16, 2.33 7.14 C1.54 7.13, 1.07 8.6, 0.5 8.06 C-0.08 7.51, -1.09 5.22, -1.11 3.87 C-1.13 2.52, -1.14 0.38, 0.38 -0.03 C1.9 -0.44, 6.35 1.1, 8.02 1.42 C9.69 1.75, 10.73 1.92, 10.39 1.93" stroke="none" stroke-width="0" fill="#fff"></path><path d="M1.76 0 C2.72 -0.84, 4.18 0.33, 5.29 0.36 C6.39 0.39, 7.44 -0.03, 8.38 0.18 C9.33 0.39, 10.74 0.39, 10.95 1.64 C11.16 2.89, 10.26 6.52, 9.65 7.66 C9.04 8.79, 8.28 8.01, 7.3 8.46 C6.33 8.9, 4.92 10.7, 3.79 10.32 C2.65 9.94, 1.36 7.26, 0.5 6.15 C-0.36 5.04, -1.74 4.42, -1.39 3.64 C-1.04 2.86, 1.28 1.85, 2.6 1.46 C3.92 1.07, 5.92 1.45, 6.53 1.3" stroke="#fff" stroke-width="1.5" fill="none" stroke-dasharray="8 9"></path></g><g stroke-linecap="round"><g transform="translate(193.09530768145748 49.571302497080865) rotate(0 21.475523015466933 2.5365833535873605)" fill-rule="evenodd"><path d="M1.84 -3.23 L39.43 -3.73 L44.62 -3.64 L44.52 1.62 L41.93 6.17 L32.72 7.85 L31.18 10.04 L30.92 6.54 L27.21 8.09 L24.91 8.27 L18.26 8.77 L17.07 7.04 L13.75 8.03 L11.16 6.63 L11.37 7.7 L11.15 7.27 L8.41 9.98 L2.85 8.02 L-0.46 -4.52" stroke="none" stroke-width="0" fill="#5c940d" fill-rule="evenodd"></path><path d="M-1.68 -3.59 C12.98 -2.5, 22.43 -2.07, 41.06 -2.28 M0.23 -1.92 C11.33 -2.58, 22.38 -2.08, 40.48 -3.99 M41.03 -3.64 C41.65 -2.77, 42.52 -2.82, 44.57 -2.34 M40.57 -3.39 C41.62 -3.21, 42.67 -2.74, 44.45 -2.44 M44.61 -1.88 C44.15 -0.72, 43.97 0.32, 44.49 3.35 M44.58 -2.67 C44.75 -0.19, 44.46 1.71, 44.28 3.37 M44.22 3.61 C43.45 3.67, 42.9 5.05, 41.7 5.93 M44.57 3.14 C43.65 4.03, 42.76 4.6, 41.77 5.66 M41.23 5.2 C38.75 6.11, 35.99 5.56, 33.58 6.26 M41.55 5.44 C40.4 5.64, 38.86 5.47, 34.47 5.77 M34.35 5.88 C33.93 6.77, 33.17 7.27, 31.82 8.68 M34.31 5.81 C33.08 6.96, 32.23 7.79, 31.57 8.37 M31.38 8.27 C30.96 7.76, 30.45 7.5, 30.13 7.07 M31.62 8.44 C31.06 8.07, 30.63 7.69, 29.91 7.13 M29.92 7.25 C29.74 7.45, 29.32 7.47, 28.62 8.26 M30 7.11 C29.46 7.37, 29.04 7.84, 28.54 8.32 M28.16 7.8 C26.39 7.78, 25.09 6.24, 23.96 6.1 M28.57 8.45 C26.34 7.22, 24.64 6.8, 23.46 6.43 M23.68 5.78 C22.35 7.72, 19.89 7.98, 18.62 8.69 M23.75 6.42 C22.71 7.03, 21.28 7.22, 18.52 9.02 M18.65 8.85 C17.7 8.59, 16.97 7.73, 15.34 6.56 M18.51 9.06 C17.69 8.41, 17.06 7.96, 15.75 6.67 M15.83 6.34 C14.72 7.17, 13.68 8.18, 13.44 8.76 M15.48 6.49 C14.63 7.46, 13.76 8.19, 13.49 8.47 M13.48 8.32 C13.16 8.15, 13.12 7.73, 12.75 6.71 M13.47 8.54 C13.27 8.03, 13.2 7.61, 12.83 6.67 M12.72 6.8 C12.62 7.05, 12.47 7.4, 11.79 8.16 M12.93 6.62 C12.34 7.23, 11.95 7.7, 11.61 8.1 M11.77 8.46 C10.93 7.6, 10.61 6.51, 10.07 6.07 M11.64 8.25 C11.32 7.68, 11.01 7.29, 10.24 5.97 M9.84 5.82 C9.3 6.41, 8.57 7.81, 7.86 8.77 M10.11 6.07 C9.42 6.72, 8.42 7.59, 7.52 8.35 M7.46 8.54 C6.15 8.08, 4.19 8.14, 1.52 8.56 M7.56 8.7 C6.29 8.44, 4.61 8.51, 1.58 8.63 M2.61 8.35 C1.77 4.42, 0.99 1.64, -0.56 -1.69 M1.02 8.11 C1.49 6.54, 0.8 3.79, -0.3 -2.08 M0 -2.63 C0 -2.63, 0 -2.63, 0 -2.63 M0 -2.63 C0 -2.63, 0 -2.63, 0 -2.63" stroke="#5c940d" stroke-width="2" fill="none"></path></g></g><g stroke-linecap="round"><g transform="translate(191.442924596387 50.38025343701963) rotate(0 22.886842826796737 -0.3177439328736966)"><path d="M-0.95 1.01 C14.76 -1.42, 29.62 0.11, 46.73 -1.46 M0.71 0.15 C17.44 -0.47, 35.62 -1.09, 45.02 -1.64" stroke="#000000" stroke-width="4" fill="none"></path></g></g><g stroke-linecap="round" transform="translate(338.1510090177662 30.133702463294014) rotate(0 34.70160097264289 20.768516949888834)"><path d="M-1.65 -1.21 C17.71 -1.16, 34.99 1.87, 70.35 -1.84 M-0.53 -0.2 C24.59 0.42, 51.11 -1.33, 69.95 -0.63 M67.66 0.8 C69.41 13.81, 67.63 24.57, 70.75 42.92 M69.89 -0.81 C70.55 14.82, 69.85 30.72, 69.67 41.93 M69.74 41.43 C51.36 40.73, 32.43 41.03, 1.35 41.76 M69.35 40.67 C53.09 42.17, 34.47 42.1, 0.71 41.68 M-1.41 41.56 C-1.96 25.58, -0.21 10.59, -1.8 -1.04 M0.74 42.53 C-0.5 27.24, 1.05 14.35, 0.82 0.89" stroke="#000000" stroke-width="1" fill="none"></path></g><g stroke-linecap="round"><g transform="translate(338.020283258483 36.441599238039544) rotate(0 34.291150012987146 0.22179225435644412)"><path d="M-0.99 -0.73 C10.47 -0.75, 57.91 -1.26, 69.57 -1 M0.69 1.51 C11.9 1.68, 56.66 0.44, 68.44 0.01" stroke="#000000" stroke-width="1" fill="none"></path></g></g><g stroke-linecap="round" transform="translate(340.5866884780057 32.451904914418435) rotate(0 1.35729258067596 1.35729258067596)"><path d="M2.71 1.36 C2.71 1.44, 2.71 1.52, 2.69 1.59 C2.68 1.67, 2.66 1.75, 2.63 1.82 C2.61 1.9, 2.57 1.97, 2.53 2.04 C2.49 2.1, 2.45 2.17, 2.4 2.23 C2.35 2.29, 2.29 2.35, 2.23 2.4 C2.17 2.45, 2.1 2.49, 2.04 2.53 C1.97 2.57, 1.9 2.61, 1.82 2.63 C1.75 2.66, 1.67 2.68, 1.59 2.69 C1.52 2.71, 1.44 2.71, 1.36 2.71 C1.28 2.71, 1.2 2.71, 1.12 2.69 C1.04 2.68, 0.97 2.66, 0.89 2.63 C0.82 2.61, 0.75 2.57, 0.68 2.53 C0.61 2.49, 0.55 2.45, 0.48 2.4 C0.42 2.35, 0.37 2.29, 0.32 2.23 C0.27 2.17, 0.22 2.1, 0.18 2.04 C0.14 1.97, 0.11 1.9, 0.08 1.82 C0.05 1.75, 0.03 1.67, 0.02 1.59 C0.01 1.52, 0 1.44, 0 1.36 C0 1.28, 0.01 1.2, 0.02 1.12 C0.03 1.04, 0.05 0.97, 0.08 0.89 C0.11 0.82, 0.14 0.75, 0.18 0.68 C0.22 0.61, 0.27 0.55, 0.32 0.48 C0.37 0.42, 0.42 0.37, 0.48 0.32 C0.55 0.27, 0.61 0.22, 0.68 0.18 C0.75 0.14, 0.82 0.11, 0.89 0.08 C0.97 0.05, 1.04 0.03, 1.12 0.02 C1.2 0.01, 1.28 0, 1.36 0 C1.44 0, 1.52 0.01, 1.59 0.02 C1.67 0.03, 1.75 0.05, 1.82 0.08 C1.9 0.11, 1.97 0.14, 2.04 0.18 C2.1 0.22, 2.17 0.27, 2.23 0.32 C2.29 0.37, 2.35 0.42, 2.4 0.48 C2.45 0.55, 2.49 0.61, 2.53 0.68 C2.57 0.75, 2.61 0.82, 2.63 0.89 C2.66 0.97, 2.68 1.04, 2.69 1.12 C2.71 1.2, 2.71 1.32, 2.71 1.36 C2.72 1.4, 2.72 1.32, 2.71 1.36" stroke="none" stroke-width="0" fill="#fa5252"></path><path d="M2.71 1.36 C2.71 1.44, 2.71 1.52, 2.69 1.59 C2.68 1.67, 2.66 1.75, 2.63 1.82 C2.61 1.9, 2.57 1.97, 2.53 2.04 C2.49 2.1, 2.45 2.17, 2.4 2.23 C2.35 2.29, 2.29 2.35, 2.23 2.4 C2.17 2.45, 2.1 2.49, 2.04 2.53 C1.97 2.57, 1.9 2.61, 1.82 2.63 C1.75 2.66, 1.67 2.68, 1.59 2.69 C1.52 2.71, 1.44 2.71, 1.36 2.71 C1.28 2.71, 1.2 2.71, 1.12 2.69 C1.04 2.68, 0.97 2.66, 0.89 2.63 C0.82 2.61, 0.75 2.57, 0.68 2.53 C0.61 2.49, 0.55 2.45, 0.48 2.4 C0.42 2.35, 0.37 2.29, 0.32 2.23 C0.27 2.17, 0.22 2.1, 0.18 2.04 C0.14 1.97, 0.11 1.9, 0.08 1.82 C0.05 1.75, 0.03 1.67, 0.02 1.59 C0.01 1.52, 0 1.44, 0 1.36 C0 1.28, 0.01 1.2, 0.02 1.12 C0.03 1.04, 0.05 0.97, 0.08 0.89 C0.11 0.82, 0.14 0.75, 0.18 0.68 C0.22 0.61, 0.27 0.55, 0.32 0.48 C0.37 0.42, 0.42 0.37, 0.48 0.32 C0.55 0.27, 0.61 0.22, 0.68 0.18 C0.75 0.14, 0.82 0.11, 0.89 0.08 C0.97 0.05, 1.04 0.03, 1.12 0.02 C1.2 0.01, 1.28 0, 1.36 0 C1.44 0, 1.52 0.01, 1.59 0.02 C1.67 0.03, 1.75 0.05, 1.82 0.08 C1.9 0.11, 1.97 0.14, 2.04 0.18 C2.1 0.22, 2.17 0.27, 2.23 0.32 C2.29 0.37, 2.35 0.42, 2.4 0.48 C2.45 0.55, 2.49 0.61, 2.53 0.68 C2.57 0.75, 2.61 0.82, 2.63 0.89 C2.66 0.97, 2.68 1.04, 2.69 1.12 C2.71 1.2, 2.71 1.32, 2.71 1.36 C2.72 1.4, 2.72 1.32, 2.71 1.36" stroke="#000000" stroke-width="1" fill="none"></path></g><g stroke-linecap="round" transform="translate(346.15630492873834 32.451904914418435) rotate(0 1.35729258067596 1.35729258067596)"><path d="M2.71 1.36 C2.71 1.44, 2.71 1.52, 2.69 1.59 C2.68 1.67, 2.66 1.75, 2.63 1.82 C2.61 1.9, 2.57 1.97, 2.53 2.04 C2.49 2.1, 2.45 2.17, 2.4 2.23 C2.35 2.29, 2.29 2.35, 2.23 2.4 C2.17 2.45, 2.1 2.49, 2.04 2.53 C1.97 2.57, 1.9 2.61, 1.82 2.63 C1.75 2.66, 1.67 2.68, 1.59 2.69 C1.52 2.71, 1.44 2.71, 1.36 2.71 C1.28 2.71, 1.2 2.71, 1.12 2.69 C1.04 2.68, 0.97 2.66, 0.89 2.63 C0.82 2.61, 0.75 2.57, 0.68 2.53 C0.61 2.49, 0.55 2.45, 0.48 2.4 C0.42 2.35, 0.37 2.29, 0.32 2.23 C0.27 2.17, 0.22 2.1, 0.18 2.04 C0.14 1.97, 0.11 1.9, 0.08 1.82 C0.05 1.75, 0.03 1.67, 0.02 1.59 C0.01 1.52, 0 1.44, 0 1.36 C0 1.28, 0.01 1.2, 0.02 1.12 C0.03 1.04, 0.05 0.97, 0.08 0.89 C0.11 0.82, 0.14 0.75, 0.18 0.68 C0.22 0.61, 0.27 0.55, 0.32 0.48 C0.37 0.42, 0.42 0.37, 0.48 0.32 C0.55 0.27, 0.61 0.22, 0.68 0.18 C0.75 0.14, 0.82 0.11, 0.89 0.08 C0.97 0.05, 1.04 0.03, 1.12 0.02 C1.2 0.01, 1.28 0, 1.36 0 C1.44 0, 1.52 0.01, 1.59 0.02 C1.67 0.03, 1.75 0.05, 1.82 0.08 C1.9 0.11, 1.97 0.14, 2.04 0.18 C2.1 0.22, 2.17 0.27, 2.23 0.32 C2.29 0.37, 2.35 0.42, 2.4 0.48 C2.45 0.55, 2.49 0.61, 2.53 0.68 C2.57 0.75, 2.61 0.82, 2.63 0.89 C2.66 0.97, 2.68 1.04, 2.69 1.12 C2.71 1.2, 2.71 1.32, 2.71 1.36 C2.72 1.4, 2.72 1.32, 2.71 1.36" stroke="none" stroke-width="0" fill="#fab005"></path><path d="M2.71 1.36 C2.71 1.44, 2.71 1.52, 2.69 1.59 C2.68 1.67, 2.66 1.75, 2.63 1.82 C2.61 1.9, 2.57 1.97, 2.53 2.04 C2.49 2.1, 2.45 2.17, 2.4 2.23 C2.35 2.29, 2.29 2.35, 2.23 2.4 C2.17 2.45, 2.1 2.49, 2.04 2.53 C1.97 2.57, 1.9 2.61, 1.82 2.63 C1.75 2.66, 1.67 2.68, 1.59 2.69 C1.52 2.71, 1.44 2.71, 1.36 2.71 C1.28 2.71, 1.2 2.71, 1.12 2.69 C1.04 2.68, 0.97 2.66, 0.89 2.63 C0.82 2.61, 0.75 2.57, 0.68 2.53 C0.61 2.49, 0.55 2.45, 0.48 2.4 C0.42 2.35, 0.37 2.29, 0.32 2.23 C0.27 2.17, 0.22 2.1, 0.18 2.04 C0.14 1.97, 0.11 1.9, 0.08 1.82 C0.05 1.75, 0.03 1.67, 0.02 1.59 C0.01 1.52, 0 1.44, 0 1.36 C0 1.28, 0.01 1.2, 0.02 1.12 C0.03 1.04, 0.05 0.97, 0.08 0.89 C0.11 0.82, 0.14 0.75, 0.18 0.68 C0.22 0.61, 0.27 0.55, 0.32 0.48 C0.37 0.42, 0.42 0.37, 0.48 0.32 C0.55 0.27, 0.61 0.22, 0.68 0.18 C0.75 0.14, 0.82 0.11, 0.89 0.08 C0.97 0.05, 1.04 0.03, 1.12 0.02 C1.2 0.01, 1.28 0, 1.36 0 C1.44 0, 1.52 0.01, 1.59 0.02 C1.67 0.03, 1.75 0.05, 1.82 0.08 C1.9 0.11, 1.97 0.14, 2.04 0.18 C2.1 0.22, 2.17 0.27, 2.23 0.32 C2.29 0.37, 2.35 0.42, 2.4 0.48 C2.45 0.55, 2.49 0.61, 2.53 0.68 C2.57 0.75, 2.61 0.82, 2.63 0.89 C2.66 0.97, 2.68 1.04, 2.69 1.12 C2.71 1.2, 2.71 1.32, 2.71 1.36 C2.72 1.4, 2.72 1.32, 2.71 1.36" stroke="#000000" stroke-width="1" fill="none"></path></g><g stroke-linecap="round" transform="translate(351.97053002045027 32.69651355539537) rotate(0 1.35729258067596 1.35729258067596)"><path d="M2.71 1.36 C2.71 1.44, 2.71 1.52, 2.69 1.59 C2.68 1.67, 2.66 1.75, 2.63 1.82 C2.61 1.9, 2.57 1.97, 2.53 2.04 C2.49 2.1, 2.45 2.17, 2.4 2.23 C2.35 2.29, 2.29 2.35, 2.23 2.4 C2.17 2.45, 2.1 2.49, 2.04 2.53 C1.97 2.57, 1.9 2.61, 1.82 2.63 C1.75 2.66, 1.67 2.68, 1.59 2.69 C1.52 2.71, 1.44 2.71, 1.36 2.71 C1.28 2.71, 1.2 2.71, 1.12 2.69 C1.04 2.68, 0.97 2.66, 0.89 2.63 C0.82 2.61, 0.75 2.57, 0.68 2.53 C0.61 2.49, 0.55 2.45, 0.48 2.4 C0.42 2.35, 0.37 2.29, 0.32 2.23 C0.27 2.17, 0.22 2.1, 0.18 2.04 C0.14 1.97, 0.11 1.9, 0.08 1.82 C0.05 1.75, 0.03 1.67, 0.02 1.59 C0.01 1.52, 0 1.44, 0 1.36 C0 1.28, 0.01 1.2, 0.02 1.12 C0.03 1.04, 0.05 0.97, 0.08 0.89 C0.11 0.82, 0.14 0.75, 0.18 0.68 C0.22 0.61, 0.27 0.55, 0.32 0.48 C0.37 0.42, 0.42 0.37, 0.48 0.32 C0.55 0.27, 0.61 0.22, 0.68 0.18 C0.75 0.14, 0.82 0.11, 0.89 0.08 C0.97 0.05, 1.04 0.03, 1.12 0.02 C1.2 0.01, 1.28 0, 1.36 0 C1.44 0, 1.52 0.01, 1.59 0.02 C1.67 0.03, 1.75 0.05, 1.82 0.08 C1.9 0.11, 1.97 0.14, 2.04 0.18 C2.1 0.22, 2.17 0.27, 2.23 0.32 C2.29 0.37, 2.35 0.42, 2.4 0.48 C2.45 0.55, 2.49 0.61, 2.53 0.68 C2.57 0.75, 2.61 0.82, 2.63 0.89 C2.66 0.97, 2.68 1.04, 2.69 1.12 C2.71 1.2, 2.71 1.32, 2.71 1.36 C2.72 1.4, 2.72 1.32, 2.71 1.36" stroke="none" stroke-width="0" fill="#40c057"></path><path d="M2.71 1.36 C2.71 1.44, 2.71 1.52, 2.69 1.59 C2.68 1.67, 2.66 1.75, 2.63 1.82 C2.61 1.9, 2.57 1.97, 2.53 2.04 C2.49 2.1, 2.45 2.17, 2.4 2.23 C2.35 2.29, 2.29 2.35, 2.23 2.4 C2.17 2.45, 2.1 2.49, 2.04 2.53 C1.97 2.57, 1.9 2.61, 1.82 2.63 C1.75 2.66, 1.67 2.68, 1.59 2.69 C1.52 2.71, 1.44 2.71, 1.36 2.71 C1.28 2.71, 1.2 2.71, 1.12 2.69 C1.04 2.68, 0.97 2.66, 0.89 2.63 C0.82 2.61, 0.75 2.57, 0.68 2.53 C0.61 2.49, 0.55 2.45, 0.48 2.4 C0.42 2.35, 0.37 2.29, 0.32 2.23 C0.27 2.17, 0.22 2.1, 0.18 2.04 C0.14 1.97, 0.11 1.9, 0.08 1.82 C0.05 1.75, 0.03 1.67, 0.02 1.59 C0.01 1.52, 0 1.44, 0 1.36 C0 1.28, 0.01 1.2, 0.02 1.12 C0.03 1.04, 0.05 0.97, 0.08 0.89 C0.11 0.82, 0.14 0.75, 0.18 0.68 C0.22 0.61, 0.27 0.55, 0.32 0.48 C0.37 0.42, 0.42 0.37, 0.48 0.32 C0.55 0.27, 0.61 0.22, 0.68 0.18 C0.75 0.14, 0.82 0.11, 0.89 0.08 C0.97 0.05, 1.04 0.03, 1.12 0.02 C1.2 0.01, 1.28 0, 1.36 0 C1.44 0, 1.52 0.01, 1.59 0.02 C1.67 0.03, 1.75 0.05, 1.82 0.08 C1.9 0.11, 1.97 0.14, 2.04 0.18 C2.1 0.22, 2.17 0.27, 2.23 0.32 C2.29 0.37, 2.35 0.42, 2.4 0.48 C2.45 0.55, 2.49 0.61, 2.53 0.68 C2.57 0.75, 2.61 0.82, 2.63 0.89 C2.66 0.97, 2.68 1.04, 2.69 1.12 C2.71 1.2, 2.71 1.32, 2.71 1.36 C2.72 1.4, 2.72 1.32, 2.71 1.36" stroke="#000000" stroke-width="1" fill="none"></path></g><g stroke-opacity="0.9" fill-opacity="0.9" stroke-linecap="round" transform="translate(360.66849676569154 41.408215019172985) rotate(0 11.592234573703365 11.592234573703365)"><path d="M12.23 -0.68 C14.45 -0.9, 17.85 0.57, 19.68 2.42 C21.51 4.27, 22.87 7.97, 23.23 10.44 C23.6 12.9, 23.39 15.09, 21.89 17.2 C20.39 19.31, 16.88 22.09, 14.24 23.08 C11.6 24.07, 8.1 24.06, 6.04 23.15 C3.99 22.24, 2.99 20.12, 1.9 17.64 C0.81 15.17, -1.08 10.81, -0.48 8.32 C0.12 5.84, 2.77 3.88, 5.51 2.73 C8.25 1.59, 14.09 1.55, 15.95 1.45 C17.82 1.35, 16.94 2.23, 16.71 2.15 M11.8 -0.28 C14.16 -0.57, 15.92 0.99, 17.71 2.47 C19.5 3.95, 21.9 5.94, 22.54 8.6 C23.18 11.26, 22.5 15.93, 21.55 18.41 C20.59 20.88, 19.21 22.63, 16.81 23.46 C14.41 24.28, 9.53 24.52, 7.16 23.33 C4.8 22.15, 3.68 18.8, 2.61 16.34 C1.54 13.88, 0.49 10.9, 0.75 8.57 C1.01 6.24, 2.58 3.68, 4.17 2.36 C5.76 1.03, 9.09 0.75, 10.3 0.61 C11.52 0.47, 11.09 1.37, 11.48 1.51" stroke="none" stroke-width="0" fill="#04aaf7"></path><path d="M13.9 1.03 C16.29 1.3, 18.98 2.49, 20.39 4.52 C21.8 6.55, 22.36 10.86, 22.34 13.23 C22.32 15.6, 21.75 17.2, 20.27 18.74 C18.78 20.28, 15.95 21.98, 13.43 22.48 C10.9 22.98, 7.33 23.16, 5.13 21.75 C2.92 20.33, 0.83 16.48, 0.2 13.99 C-0.42 11.51, 0.2 9.15, 1.37 6.85 C2.54 4.55, 4.79 1.11, 7.22 0.22 C9.64 -0.68, 14.11 1.14, 15.9 1.49 C17.68 1.84, 17.87 2.18, 17.92 2.31 M14.28 0.56 C17.05 0.84, 20.81 3.28, 22.39 5.17 C23.97 7.05, 24.23 9.61, 23.75 11.86 C23.28 14.1, 21.32 16.75, 19.54 18.61 C17.76 20.48, 15.43 22.65, 13.07 23.04 C10.71 23.43, 7.51 22.34, 5.38 20.96 C3.25 19.59, 0.86 17.1, 0.29 14.78 C-0.27 12.46, 1.1 9.41, 2.01 7.06 C2.91 4.72, 3.56 1.84, 5.73 0.71 C7.9 -0.43, 13.79 0.05, 15.01 0.26 C16.23 0.48, 13.09 1.9, 13.03 2.01" stroke="#000000" stroke-width="1" fill="none"></path></g><g stroke-linecap="round"><g transform="translate(383.33209303384774 53.08123533728798) rotate(0 -9.849675143453908 0.6486703597709607)" fill-rule="evenodd"><path d="M-7.97 -2.87 L-12.08 -6.27 L-14.13 -5.23 L-14.81 -1.58 L-14.08 0.79 L-17.42 1.95 L-17.3 4.54 L-14.69 4.38 L-12.69 2.28 L-8.78 7.65 L-8.19 6.99 L-10.02 -0.26 L-8.79 -0.89 L-6.25 0.32 L-2.96 0.32 L-2.11 -2.52 L-5.68 -2.27 L-4.99 -5.99 L-6.63 -5.77 L-7.97 -2.87" stroke="none" stroke-width="0" fill="#40c057" fill-rule="evenodd"></path><path d="M-7.97 -2.87 C-8.13 -2.91, -8.28 -2.53, -8.96 -3.09 C-9.65 -3.66, -11.22 -5.92, -12.08 -6.27 C-12.94 -6.63, -13.68 -6.01, -14.13 -5.23 C-14.59 -4.45, -14.82 -2.58, -14.81 -1.58 C-14.8 -0.58, -13.65 0.2, -14.08 0.79 C-14.52 1.38, -16.89 1.33, -17.42 1.95 C-17.96 2.58, -17.76 4.13, -17.3 4.54 C-16.85 4.94, -15.46 4.75, -14.69 4.38 C-13.92 4, -13.48 1.87, -12.69 2.28 C-11.89 2.68, -10.68 6.04, -9.93 6.83 C-9.18 7.62, -8.18 8.17, -8.19 6.99 C-8.21 5.81, -10.18 0.99, -10.02 -0.26 C-9.86 -1.51, -7.84 -0.61, -7.22 -0.51 C-6.59 -0.41, -6.96 0.18, -6.25 0.32 C-5.54 0.45, -3.65 0.79, -2.96 0.32 C-2.26 -0.16, -1.65 -2.09, -2.11 -2.52 C-2.56 -2.95, -5.2 -1.69, -5.68 -2.27 C-6.16 -2.84, -4.83 -5.41, -4.99 -5.99 C-5.15 -6.58, -6.11 -6.21, -6.63 -5.77 C-7.14 -5.33, -7.87 -3.85, -8.1 -3.37 C-8.32 -2.89, -7.99 -2.95, -7.97 -2.87 M-7.97 -2.87 C-8.13 -2.91, -8.28 -2.53, -8.96 -3.09 C-9.65 -3.66, -11.22 -5.92, -12.08 -6.27 C-12.94 -6.63, -13.68 -6.01, -14.13 -5.23 C-14.59 -4.45, -14.82 -2.58, -14.81 -1.58 C-14.8 -0.58, -13.65 0.2, -14.08 0.79 C-14.52 1.38, -16.89 1.33, -17.42 1.95 C-17.96 2.58, -17.76 4.13, -17.3 4.54 C-16.85 4.94, -15.46 4.75, -14.69 4.38 C-13.92 4, -13.48 1.87, -12.69 2.28 C-11.89 2.68, -10.68 6.04, -9.93 6.83 C-9.18 7.62, -8.18 8.17, -8.19 6.99 C-8.21 5.81, -10.18 0.99, -10.02 -0.26 C-9.86 -1.51, -7.84 -0.61, -7.22 -0.51 C-6.59 -0.41, -6.96 0.18, -6.25 0.32 C-5.54 0.45, -3.65 0.79, -2.96 0.32 C-2.26 -0.16, -1.65 -2.09, -2.11 -2.52 C-2.56 -2.95, -5.2 -1.69, -5.68 -2.27 C-6.16 -2.84, -4.83 -5.41, -4.99 -5.99 C-5.15 -6.58, -6.11 -6.21, -6.63 -5.77 C-7.14 -5.33, -7.87 -3.85, -8.1 -3.37 C-8.32 -2.89, -7.99 -2.95, -7.97 -2.87" stroke="#087f5b" stroke-width="1" fill="none"></path></g></g><g stroke-linecap="round"><g stroke-opacity="0.9" fill-opacity="0.9" transform="translate(361.51282897304327 53.308840423694846) rotate(0 11.524895711638806 -0.10973878291102324)"><path d="M0.57 -1.11 C4.67 -1.33, 19.79 -0.59, 23.64 -0.51 M-0.59 0.93 C3.5 0.8, 19.12 0.86, 23.11 0.76" stroke="#000000" stroke-width="1" fill="none"></path></g></g><g stroke-linecap="round"><g stroke-opacity="0.9" fill-opacity="0.9" transform="translate(364.008516041338 44.52850781428748) rotate(0 7.955677757208207 1.305964498733971)"><path d="M0 -0.12 C0.07 0.09, 0.05 0.74, 0.42 1.12 C0.79 1.49, 1.52 1.87, 2.23 2.15 C2.93 2.43, 3.6 2.67, 4.63 2.78 C5.66 2.89, 7.04 2.89, 8.4 2.84 C9.76 2.78, 11.64 2.75, 12.8 2.44 C13.96 2.13, 14.85 1.43, 15.37 0.98 C15.89 0.53, 15.82 -0.05, 15.91 -0.26 M0 -0.12 C0.07 0.09, 0.05 0.74, 0.42 1.12 C0.79 1.49, 1.52 1.87, 2.23 2.15 C2.93 2.43, 3.6 2.67, 4.63 2.78 C5.66 2.89, 7.04 2.89, 8.4 2.84 C9.76 2.78, 11.64 2.75, 12.8 2.44 C13.96 2.13, 14.85 1.43, 15.37 0.98 C15.89 0.53, 15.82 -0.05, 15.91 -0.26" stroke="#000000" stroke-width="1" fill="none"></path></g></g><g stroke-opacity="0.9" fill-opacity="0.9" stroke-linecap="round" transform="translate(368.39027089056344 40.65790922384991) rotate(0 4.2136797787360365 12.162645068151079)"><path d="M4.84 1.65 C5.8 2.25, 7.47 3.26, 8.15 5.26 C8.83 7.26, 9.12 10.88, 8.91 13.67 C8.69 16.46, 7.69 20.37, 6.87 22 C6.04 23.63, 4.76 23.56, 3.94 23.46 C3.11 23.35, 2.41 23.06, 1.9 21.36 C1.38 19.66, 1.05 15.7, 0.84 13.26 C0.62 10.82, 0.16 8.72, 0.59 6.73 C1.03 4.74, 2.43 2.15, 3.47 1.31 C4.51 0.47, 6.24 1.68, 6.83 1.7 C7.41 1.71, 6.98 1.29, 6.97 1.4 M5.12 -0.49 C5.67 -0.7, 6.16 0.54, 6.75 2.43 C7.34 4.32, 8.46 8.13, 8.66 10.86 C8.86 13.58, 8.53 16.59, 7.95 18.75 C7.37 20.92, 5.94 23.06, 5.2 23.84 C4.46 24.62, 4.42 24.57, 3.5 23.42 C2.57 22.28, 0.11 19.37, -0.35 16.98 C-0.8 14.59, 0.63 11.31, 0.76 9.1 C0.89 6.89, -0.26 5.34, 0.45 3.74 C1.16 2.13, 4.29 -0.13, 5.04 -0.53 C5.78 -0.93, 4.98 0.82, 4.93 1.34" stroke="#000000" stroke-width="1" fill="none"></path></g><g stroke-linecap="round"><g stroke-opacity="0.9" fill-opacity="0.9" transform="translate(364.83123056314776 64.20467687540008) rotate(0 7.955677757208207 -4.044475414231272)"><path d="M0 -2.57 C0.37 -2.96, 1.45 -4.42, 2.23 -4.92 C3 -5.42, 3.6 -5.45, 4.63 -5.57 C5.66 -5.68, 7.04 -5.68, 8.4 -5.63 C9.76 -5.57, 11.64 -5.53, 12.8 -5.21 C13.96 -4.89, 14.85 -4.18, 15.37 -3.71 C15.89 -3.25, 15.82 -2.64, 15.91 -2.43 M0 -2.57 C0.37 -2.96, 1.45 -4.42, 2.23 -4.92 C3 -5.42, 3.6 -5.45, 4.63 -5.57 C5.66 -5.68, 7.04 -5.68, 8.4 -5.63 C9.76 -5.57, 11.64 -5.53, 12.8 -5.21 C13.96 -4.89, 14.85 -4.18, 15.37 -3.71 C15.89 -3.25, 15.82 -2.64, 15.91 -2.43" stroke="#000000" stroke-width="1" fill="none"></path></g></g><g stroke-linecap="round"><g transform="translate(443.3712853697301 32.03190533881866) rotate(89.99999999999994 11.625671082648921 22.79067404219728)" fill-rule="evenodd"><path d="M0.71 -8.66 C0.71 -8.66, 0.71 -8.66, 0.71 -8.66 M0.71 -8.66 C0.71 -8.66, 0.71 -8.66, 0.71 -8.66 M2.8 -4.11 C3.09 -6.14, 3.94 -6.38, 6.96 -10.34 M2.71 -4.31 C4.05 -6.43, 6.08 -8.17, 7.07 -9.9 M1.67 1.36 C4.71 -1.47, 10.01 -6.34, 12.88 -9.43 M2.93 1.29 C6.71 -2.53, 9.64 -7.76, 13.34 -11.38 M1.83 7.41 C7.92 0.48, 14.51 -4.96, 17.02 -8.71 M2.09 7.53 C8.81 0.87, 12.28 -4.35, 18.48 -10.75 M3.01 15.01 C9.44 6.05, 15.47 -0.49, 21.77 -10.47 M1.64 14.03 C7.55 7.29, 14.23 0.66, 22.74 -9.43 M2.98 18.77 C11.07 13.04, 16.39 1.95, 24.29 -6.21 M2.19 19.63 C8.24 11.64, 14.22 5.37, 24.15 -5.19 M2.8 25.88 C5.64 21.17, 13.67 13.04, 23.48 -1.06 M2.99 26 C10.2 18.21, 16.71 9.95, 25.71 -0.15 M2.62 32.39 C9.66 25.96, 17.85 17.85, 24.45 6.43 M2.47 31.95 C10.3 22.85, 17.96 12.82, 25.52 6.13 M1.02 37.23 C7.59 30.93, 15.85 22.43, 25.23 11.25 M3.16 38.29 C9.06 30.65, 13.82 24.64, 24.05 11.5 M0.38 46.09 C7.36 38.8, 14.14 33.37, 23.43 16.1 M1.54 43.8 C10.8 36, 18.94 25.11, 24.28 18.42 M-1.86 52.89 C8 45.94, 13.75 38.52, 25.58 23.35 M0.83 53.61 C5.88 46.33, 12.83 39.03, 25.58 23.86 M1.99 56.41 C11.9 48.48, 17.17 39.01, 25 29.45 M2.77 55.76 C11.32 47.26, 20.1 37.21, 25.15 30.69 M5.46 56.33 C11.24 55.49, 15.16 50.2, 23.9 36.64 M6.67 58.32 C13.44 49.67, 22.06 40.75, 24.6 37.34 M13.02 59.06 C13.93 54.52, 16.72 51.99, 23.27 43.37 M11.11 57.1 C14.09 53.87, 18.24 51.32, 25.41 43.23 M18.25 57.23 C19.61 53.99, 22.55 52.58, 24.65 48.32 M17.85 57.76 C19.56 54.35, 23.25 50.82, 24.97 48.56" stroke="#40c057" stroke-width="0.5" fill="none"></path><path d="M0.81 -7.15 C0.77 1.82, 0.67 36.36, 0.39 46.39 C0.1 56.42, -0.85 51.54, -0.88 53.03 C-0.9 54.52, -0.62 54.57, 0.24 55.33 C1.1 56.09, 2.15 57.35, 4.27 57.57 C6.4 57.78, 10.62 56.69, 13.01 56.61 C15.39 56.54, 16.98 57.6, 18.58 57.12 C20.19 56.64, 21.64 54.59, 22.64 53.75 C23.64 52.9, 24.22 53.21, 24.6 52.07 C24.97 50.92, 24.84 55.79, 24.88 46.88 C24.92 37.97, 25.17 7.64, 24.82 -1.39 C24.47 -10.43, 23.14 -5.81, 22.78 -7.32 C22.42 -8.82, 23.4 -9.62, 22.68 -10.43 C21.96 -11.24, 20.15 -11.91, 18.45 -12.19 C16.76 -12.47, 14.67 -12.37, 12.51 -12.12 C10.34 -11.88, 7.27 -11.29, 5.47 -10.74 C3.68 -10.19, 2.69 -9.28, 1.73 -8.8 C0.76 -8.33, 0.16 -8.08, -0.32 -7.89 C-0.79 -7.7, -1.24 -7.72, -1.15 -7.65 M-0.21 -8.42 C-0.45 0.83, -0.69 38.08, -0.39 48 C-0.1 57.91, 1.5 49.62, 1.56 51.06 C1.63 52.51, -0.73 55.47, -0.02 56.66 C0.69 57.84, 4.02 57.87, 5.85 58.19 C7.68 58.52, 8.81 58.98, 10.96 58.61 C13.11 58.24, 17.02 56.89, 18.75 55.99 C20.49 55.1, 20.58 54.1, 21.36 53.23 C22.14 52.36, 23.22 51.93, 23.43 50.79 C23.64 49.64, 22.83 55.42, 22.61 46.36 C22.38 37.29, 21.76 5.45, 22.1 -3.6 C22.43 -12.65, 24.44 -7.19, 24.64 -7.94 C24.83 -8.68, 24.45 -7.83, 23.27 -8.06 C22.09 -8.29, 19.83 -8.57, 17.57 -9.32 C15.31 -10.07, 11.57 -12.01, 9.71 -12.58 C7.86 -13.14, 7.91 -13.49, 6.44 -12.71 C4.96 -11.94, 2.22 -8.72, 0.85 -7.95 C-0.51 -7.18, -1.7 -8.13, -1.75 -8.11 C-1.81 -8.1, 0.1 -8.24, 0.53 -7.87" stroke="#087f5b" stroke-width="1" fill="none"></path></g></g><g stroke-linecap="round"><g transform="translate(431.52101470597063 52.206264761456055) rotate(89.99999999999994 11.584318660315887 2.6822757240184387)"><path d="M-0.42 0 C-0.18 0.1, 0 0.62, 0.73 1.11 C1.46 1.6, 2.88 2.47, 3.95 2.94 C5.01 3.4, 5.68 3.46, 7.12 3.89 C8.56 4.33, 10.9 5.62, 12.6 5.56 C14.3 5.5, 15.65 4.25, 17.32 3.54 C18.99 2.82, 21.75 1.78, 22.64 1.25 C23.53 0.73, 22.58 0.49, 22.67 0.38 M1.56 -0.87 C1.72 -0.72, -0.48 1.43, -0.15 2.2 C0.18 2.97, 2.27 3.38, 3.56 3.75 C4.85 4.11, 6.29 3.98, 7.59 4.38 C8.89 4.78, 9.61 5.93, 11.37 6.15 C13.12 6.37, 16.09 6.16, 18.11 5.69 C20.13 5.21, 22.94 4.17, 23.5 3.31 C24.06 2.46, 21.78 1.12, 21.47 0.54" stroke="#087f5b" stroke-width="1" fill="none"></path></g></g><g stroke-linecap="round"><g transform="translate(452.4273301288589 52.46118642827065) rotate(89.99999999999994 11.468958427169412 2.3746750256154883)"><path d="M0.32 -0.13 C0.14 0.37, -0.58 1.7, -0.26 2.31 C0.06 2.92, 1.28 3.18, 2.24 3.55 C3.21 3.92, 3.79 4.62, 5.5 4.52 C7.21 4.42, 10.49 3.05, 12.5 2.96 C14.51 2.87, 16.03 4.29, 17.56 3.97 C19.09 3.65, 20.62 1.76, 21.68 1.05 C22.74 0.35, 23.5 0.01, 23.9 -0.27 M-0.97 -1.11 C-0.84 -0.92, 1.06 0.15, 2 0.57 C2.93 0.99, 4.11 0.55, 4.63 1.43 C5.15 2.31, 4.03 5.64, 5.13 5.86 C6.23 6.08, 9 3.18, 11.23 2.73 C13.45 2.28, 16.69 3.07, 18.5 3.15 C20.31 3.23, 21.26 3.8, 22.07 3.19 C22.88 2.58, 23.22 0.37, 23.38 -0.51" stroke="#087f5b" stroke-width="1" fill="none"></path></g></g><g stroke-linecap="round" transform="translate(473.0427396392139 49.08379689809448) rotate(89.99999999999994 11.631770198699826 5.171234743552503)"><path d="M13.88 0.62 C16.46 0.56, 19.59 0.69, 21.06 1.31 C22.53 1.93, 22.64 3.16, 22.71 4.34 C22.78 5.52, 23.08 7.28, 21.46 8.39 C19.85 9.49, 15.5 10.6, 13.03 10.96 C10.56 11.33, 8.55 11.13, 6.64 10.58 C4.74 10.02, 2.61 8.77, 1.6 7.63 C0.59 6.49, -0.24 4.74, 0.59 3.74 C1.41 2.74, 4.24 2.28, 6.55 1.63 C8.86 0.99, 13.02 -0.01, 14.47 -0.12 C15.92 -0.22, 15.28 0.93, 15.23 1.01 M10.45 0.26 C12.86 0.13, 15.12 1.54, 17.32 2.11 C19.52 2.67, 22.63 2.6, 23.65 3.66 C24.68 4.72, 24.74 7.29, 23.49 8.44 C22.24 9.59, 18.42 10.46, 16.17 10.56 C13.92 10.67, 12.31 9.4, 9.99 9.05 C7.67 8.7, 4.04 9.04, 2.26 8.46 C0.47 7.89, -0.69 6.82, -0.73 5.57 C-0.77 4.33, 0.34 1.92, 2.02 0.99 C3.7 0.06, 8.02 0.28, 9.37 -0.02 C10.71 -0.32, 9.76 -0.79, 10.09 -0.81" stroke="none" stroke-width="0" fill="#fff"></path><path d="M14.12 0.61 C16.61 0.64, 20.36 0.46, 21.74 1.39 C23.13 2.32, 22.86 4.96, 22.42 6.18 C21.98 7.4, 20.69 7.97, 19.12 8.69 C17.54 9.41, 15.23 10.42, 12.97 10.5 C10.71 10.58, 7.51 9.75, 5.56 9.17 C3.6 8.6, 2.07 8.16, 1.26 7.05 C0.45 5.93, -0.4 3.72, 0.68 2.48 C1.76 1.25, 5.24 0.18, 7.72 -0.34 C10.19 -0.85, 13.94 -0.78, 15.54 -0.6 C17.13 -0.42, 17.32 0.39, 17.28 0.74 M13.69 -1.18 C15.77 -0.82, 18.85 1.29, 20.28 2.69 C21.71 4.1, 22.5 6.19, 22.28 7.25 C22.06 8.32, 20.45 8.7, 18.95 9.08 C17.44 9.47, 15.45 9.73, 13.26 9.56 C11.07 9.39, 7.79 8.77, 5.82 8.07 C3.85 7.37, 2.05 6.4, 1.46 5.36 C0.86 4.33, 1.52 2.74, 2.25 1.86 C2.98 0.99, 3.65 0.5, 5.81 0.09 C7.97 -0.32, 13.67 -0.5, 15.2 -0.61 C16.74 -0.71, 14.99 -0.8, 15.03 -0.54" stroke="#087f5b" stroke-width="1" fill="none"></path></g></svg>